<svg width="22" height="40" viewBox="0 0 22 40" fill="none" xmlns="http://www.w3.org/2000/svg">
<mask id="path-1-outside-1_296_4535" maskUnits="userSpaceOnUse" x="0" y="-0.125" width="22" height="40" fill="black">
<rect fill="white" y="-0.125" width="22" height="40"/>
<path d="M14.25 1.875H20.25V37.875H15.75V5.625L5.25 14.625L3 11.625L14.25 1.875Z"/>
</mask>
<path d="M14.25 1.875V0.375H13.6904L13.2676 0.741466L14.25 1.875ZM20.25 1.875H21.75V0.375H20.25V1.875ZM20.25 37.875V39.375H21.75V37.875H20.25ZM15.75 37.875H14.25V39.375H15.75V37.875ZM15.75 5.625H17.25V2.36367L14.7738 4.48611L15.75 5.625ZM5.25 14.625L4.05 15.525L5.01061 16.8058L6.22619 15.7639L5.25 14.625ZM3 11.625L2.0176 10.4915L0.961389 11.4069L1.8 12.525L3 11.625ZM14.25 3.375H20.25V0.375H14.25V3.375ZM18.75 1.875V37.875H21.75V1.875H18.75ZM20.25 36.375H15.75V39.375H20.25V36.375ZM17.25 37.875V5.625H14.25V37.875H17.25ZM14.7738 4.48611L4.27381 13.4861L6.22619 15.7639L16.7262 6.76389L14.7738 4.48611ZM6.45 13.725L4.2 10.725L1.8 12.525L4.05 15.525L6.45 13.725ZM3.9824 12.7585L15.2324 3.00853L13.2676 0.741466L2.0176 10.4915L3.9824 12.7585Z" fill="#00159E" mask="url(#path-1-outside-1_296_4535)"/>
</svg>
