<svg width="44" height="41" viewBox="0 0 44 41" fill="none" xmlns="http://www.w3.org/2000/svg">
<mask id="path-1-outside-1_296_4538" maskUnits="userSpaceOnUse" x="0" y="-0.125" width="44" height="41" fill="black">
<rect fill="white" y="-0.125" width="44" height="41"/>
<path d="M2 34.375C2 33.4375 2.02344 32.5078 2.07031 31.5859C2.11719 30.6484 2.21875 29.7578 2.375 28.9141C2.54688 28.0547 2.78906 27.25 3.10156 26.5C3.42969 25.75 3.86719 25.0938 4.41406 24.5312C4.97656 23.9531 5.67188 23.4766 6.5 23.1016C7.32812 22.7266 8.32812 22.4844 9.5 22.375L33.5 20.125C34.25 20.0625 34.9062 19.9531 35.4688 19.7969C36.0312 19.6406 36.4922 19.3438 36.8516 18.9062C37.2266 18.4531 37.5078 17.7969 37.6953 16.9375C37.8828 16.0781 37.9766 14.8984 37.9766 13.3984C37.9766 12.1484 37.8828 11.0938 37.6953 10.2344C37.5078 9.375 37.1953 8.66406 36.7578 8.10156C36.3203 7.53906 35.7266 7.10938 34.9766 6.8125C34.2422 6.51562 33.3203 6.29688 32.2109 6.15625C31.1016 6.01562 29.7891 5.9375 28.2734 5.92188C26.7578 5.89063 25 5.875 23 5.875C20.25 5.875 17.9297 5.92969 16.0391 6.03906C14.1641 6.13281 12.6094 6.3125 11.375 6.57812C10.1562 6.84375 9.21875 7.20313 8.5625 7.65625C7.90625 8.10937 7.42188 8.70313 7.10938 9.4375C6.8125 10.1563 6.63281 11.0234 6.57031 12.0391C6.52344 13.0547 6.5 14.25 6.5 15.625H2C2 13.375 2.20312 11.4844 2.60938 9.95312C3.03125 8.40625 3.64062 7.13281 4.4375 6.13281C5.25 5.13281 6.25 4.35937 7.4375 3.8125C8.625 3.26563 9.99219 2.86719 11.5391 2.61719C13.1016 2.36719 14.8359 2.22656 16.7422 2.19531C18.6641 2.14844 20.75 2.125 23 2.125C25.25 2.125 27.2891 2.16406 29.1172 2.24219C30.9609 2.30469 32.6016 2.46094 34.0391 2.71094C35.4922 2.96094 36.75 3.32812 37.8125 3.8125C38.875 4.29688 39.75 4.96094 40.4375 5.80469C41.1406 6.63281 41.6562 7.66406 41.9844 8.89844C42.3281 10.1328 42.5 11.625 42.5 13.375C42.5 14.875 42.3906 16.2422 42.1719 17.4766C41.9531 18.6953 41.5625 19.7578 41 20.6641C40.4375 21.5703 39.6719 22.2969 38.7031 22.8438C37.7344 23.3906 36.5 23.7344 35 23.875L11 26.125C9.85938 26.2344 8.98438 26.4453 8.375 26.7578C7.76562 27.0703 7.32031 27.5703 7.03906 28.2578C6.75781 28.9297 6.59375 29.8203 6.54688 30.9297C6.51562 32.0391 6.5 33.4375 6.5 35.125H41.75V38.875H2V34.375Z"/>
</mask>
<path d="M2.07031 31.5859L3.56838 31.6621L3.56844 31.6608L2.07031 31.5859ZM2.375 28.9141L0.904129 28.6199L0.902028 28.6304L0.900077 28.6409L2.375 28.9141ZM3.10156 26.5L1.72733 25.8988L1.72203 25.9109L1.71695 25.9231L3.10156 26.5ZM4.41406 24.5312L3.33897 23.4852L3.33857 23.4856L4.41406 24.5312ZM9.5 22.375L9.63939 23.8685L9.64001 23.8685L9.5 22.375ZM33.5 20.125L33.3754 18.6302L33.3677 18.6308L33.36 18.6315L33.5 20.125ZM36.8516 18.9062L35.696 17.9499L35.6925 17.9541L36.8516 18.9062ZM34.9766 6.8125L34.4144 8.2032L34.4245 8.20721L34.9766 6.8125ZM28.2734 5.92188L28.2425 7.42156L28.2502 7.42172L28.258 7.4218L28.2734 5.92188ZM16.0391 6.03906L16.114 7.53724L16.1257 7.53656L16.0391 6.03906ZM11.375 6.57812L11.0594 5.11169L11.0556 5.11253L11.375 6.57812ZM7.10938 9.4375L5.72914 8.85017L5.72602 8.8575L5.72298 8.86486L7.10938 9.4375ZM6.57031 12.0391L5.07314 11.9469L5.07244 11.9584L5.07191 11.9699L6.57031 12.0391ZM6.5 15.625V17.125H8V15.625H6.5ZM2 15.625H0.5V17.125H2V15.625ZM2.60938 9.95312L1.16219 9.55844L1.15953 9.56847L2.60938 9.95312ZM4.4375 6.13281L3.27333 5.18692L3.26884 5.19244L3.26441 5.19801L4.4375 6.13281ZM11.5391 2.61719L11.3021 1.13602L11.2997 1.1364L11.5391 2.61719ZM16.7422 2.19531L16.7668 3.69516L16.7788 3.69487L16.7422 2.19531ZM29.1172 2.24219L29.0531 3.74088L29.0664 3.74133L29.1172 2.24219ZM34.0391 2.71094L33.7821 4.18876L33.7847 4.18922L34.0391 2.71094ZM40.4375 5.80469L39.2746 6.7522L39.2842 6.76396L39.2941 6.77553L40.4375 5.80469ZM41.9844 8.89844L40.5347 9.28379L40.537 9.29233L40.5394 9.30085L41.9844 8.89844ZM42.1719 17.4766L43.6483 17.7416L43.6489 17.7383L42.1719 17.4766ZM11 26.125L10.86 24.6315L10.8568 24.6318L11 26.125ZM7.03906 28.2578L8.42277 28.837L8.42738 28.8258L7.03906 28.2578ZM6.54688 30.9297L5.04821 30.8664L5.04777 30.8769L5.04747 30.8875L6.54688 30.9297ZM6.5 35.125H5V36.625H6.5V35.125ZM41.75 35.125H43.25V33.625H41.75V35.125ZM41.75 38.875V40.375H43.25V38.875H41.75ZM2 38.875H0.5V40.375H2V38.875ZM3.5 34.375C3.5 33.4625 3.52281 32.5582 3.56838 31.6621L0.572248 31.5098C0.524063 32.4574 0.5 33.4125 0.5 34.375H3.5ZM3.56844 31.6608C3.6123 30.7837 3.70687 29.9597 3.84992 29.1872L0.900077 28.6409C0.730633 29.5559 0.622079 30.5131 0.572184 31.511L3.56844 31.6608ZM3.84587 29.2082C3.99988 28.4382 4.21451 27.7289 4.48618 27.0769L1.71695 25.9231C1.36361 26.7711 1.09387 27.6712 0.904129 28.6199L3.84587 29.2082ZM4.4758 27.1012C4.73498 26.5088 5.07352 26.0048 5.48955 25.5769L3.33857 23.4856C2.66086 24.1827 2.12439 24.9912 1.72733 25.8988L4.4758 27.1012ZM5.48915 25.5773C5.90535 25.1495 6.43986 24.7754 7.11876 24.468L5.88124 21.7351C4.90389 22.1777 4.04778 22.7567 3.33897 23.4852L5.48915 25.5773ZM7.11876 24.468C7.75805 24.1785 8.58701 23.9667 9.63939 23.8685L9.36061 20.8815C8.06924 21.002 6.8982 21.2746 5.88124 21.7351L7.11876 24.468ZM9.64001 23.8685L33.64 21.6185L33.36 18.6315L9.35999 20.8815L9.64001 23.8685ZM33.6246 21.6198C34.4429 21.5516 35.1956 21.4295 35.8702 21.2422L35.0673 18.3516C34.6169 18.4767 34.0571 18.5734 33.3754 18.6302L33.6246 21.6198ZM35.8702 21.2422C36.7201 21.0061 37.4491 20.542 38.0107 19.8584L35.6925 17.9541C35.5353 18.1455 35.3424 18.2752 35.0673 18.3516L35.8702 21.2422ZM38.0072 19.8626C38.5917 19.1563 38.9455 18.2441 39.1608 17.2572L36.2298 16.6178C36.0701 17.3497 35.8614 17.75 35.696 17.9499L38.0072 19.8626ZM39.1608 17.2572C39.3817 16.2448 39.4766 14.9421 39.4766 13.3984H36.4766C36.4766 14.8548 36.3839 15.9114 36.2298 16.6178L39.1608 17.2572ZM39.4766 13.3984C39.4766 12.0819 39.3786 10.9127 39.1608 9.91462L36.2298 10.5541C36.387 11.2748 36.4766 12.2149 36.4766 13.3984H39.4766ZM39.1608 9.91462C38.9365 8.88652 38.5453 7.95649 37.9418 7.18065L35.5738 9.02247C35.8454 9.37163 36.0791 9.86348 36.2298 10.5541L39.1608 9.91462ZM37.9418 7.18065C37.319 6.37982 36.4943 5.80002 35.5286 5.41779L34.4245 8.20721C34.9588 8.41873 35.3217 8.6983 35.5738 9.02247L37.9418 7.18065ZM35.5387 5.42183C34.6467 5.06122 33.589 4.81894 32.3996 4.66816L32.0223 7.64434C33.0516 7.77481 33.8377 7.97003 34.4144 8.20317L35.5387 5.42183ZM32.3996 4.66816C31.2167 4.51821 29.8436 4.43798 28.2889 4.42195L28.258 7.4218C29.7345 7.43702 30.9864 7.51304 32.0223 7.64434L32.3996 4.66816ZM28.3044 4.42219C26.7758 4.39068 25.0073 4.375 23 4.375V7.375C24.9927 7.375 26.7398 7.39057 28.2425 7.42156L28.3044 4.42219ZM23 4.375C20.2327 4.375 17.8816 4.42996 15.9524 4.54157L16.1257 7.53656C17.9778 7.42941 20.2673 7.375 23 7.375V4.375ZM15.9642 4.54093C14.0432 4.63698 12.4012 4.82297 11.0594 5.11169L11.6906 8.04456C12.8176 7.80203 14.285 7.62864 16.114 7.53719L15.9642 4.54093ZM11.0556 5.11253C9.74174 5.39888 8.59209 5.81299 7.71021 6.4219L9.41479 8.8906C9.84541 8.59326 10.5708 8.28862 11.6944 8.04372L11.0556 5.11253ZM7.71021 6.4219C6.8201 7.03651 6.15274 7.85471 5.72914 8.85017L8.48961 10.0248C8.69101 9.55154 8.9924 9.18224 9.41479 8.8906L7.71021 6.4219ZM5.72298 8.86486C5.34685 9.7755 5.14285 10.8142 5.07314 11.9469L8.06748 12.1312C8.12277 11.2327 8.27815 10.537 8.49577 10.0101L5.72298 8.86486ZM5.07191 11.9699C5.02367 13.015 5 14.2344 5 15.625H8C8 14.2656 8.0232 13.0944 8.06872 12.1082L5.07191 11.9699ZM6.5 14.125H2V17.125H6.5V14.125ZM3.5 15.625C3.5 13.4552 3.69696 11.7032 4.05922 10.3378L1.15953 9.56847C0.709294 11.2655 0.5 13.2948 0.5 15.625H3.5ZM4.05652 10.3478C4.4379 8.94941 4.96873 7.87309 5.61059 7.06762L3.26441 5.19801C2.31252 6.39253 1.6246 7.86309 1.16223 9.55845L4.05652 10.3478ZM5.60167 7.0787C6.2673 6.25947 7.08269 5.62732 8.06495 5.17496L6.81005 2.45004C5.41731 3.09143 4.2327 4.00615 3.27333 5.18692L5.60167 7.0787ZM8.06495 5.17496C9.10745 4.69487 10.34 4.33044 11.7784 4.09797L11.2997 1.1364C9.6444 1.40393 8.14255 1.83638 6.81005 2.45004L8.06495 5.17496ZM11.776 4.09835C13.2558 3.86159 14.9178 3.72542 16.7668 3.69511L16.7176 0.695514C14.7541 0.727703 12.9473 0.872784 11.3021 1.13603L11.776 4.09835ZM16.7788 3.69487C18.6866 3.64833 20.7602 3.625 23 3.625V0.625C20.7398 0.625 18.6415 0.648541 16.7056 0.695758L16.7788 3.69487ZM23 3.625C25.2333 3.625 27.2505 3.66378 29.0531 3.74082L29.1812 0.743555C27.3276 0.66434 25.2667 0.625 23 0.625V3.625ZM29.0664 3.74133C30.8581 3.80206 32.4277 3.95322 33.7821 4.18876L34.2961 1.23312C32.7754 0.968651 31.0637 0.807311 29.168 0.743049L29.0664 3.74133ZM33.7847 4.18922C35.1425 4.42281 36.271 4.75828 37.1903 5.17736L38.4347 2.44764C37.229 1.89797 35.8419 1.49907 34.2934 1.23266L33.7847 4.18922ZM37.1903 5.17736C38.0585 5.57317 38.7433 6.10014 39.2746 6.7522L41.6004 4.85718C40.7567 3.82173 39.6915 3.02058 38.4347 2.44764L37.1903 5.17736ZM39.2941 6.77553C39.8296 7.40634 40.2539 8.22733 40.5347 9.28379L43.434 8.51309C43.0586 7.1008 42.4516 5.85929 41.5809 4.83384L39.2941 6.77553ZM40.5394 9.30085C40.8361 10.3663 41 11.7151 41 13.375H44C44 11.5349 43.8202 9.89932 43.4294 8.49603L40.5394 9.30085ZM41 13.375C41 14.8037 40.8957 16.0817 40.6949 17.2148L43.6489 17.7383C43.8856 16.4027 44 14.9463 44 13.375H41ZM40.6955 17.2116C40.5049 18.2734 40.1734 19.1515 39.7255 19.873L42.2745 21.4551C42.9516 20.3641 43.4014 19.1172 43.6483 17.7416L40.6955 17.2116ZM39.7255 19.873C39.3017 20.5558 38.7248 21.109 37.9657 21.5375L39.4405 24.15C40.6189 23.4847 41.5733 22.5848 42.2745 21.4551L39.7255 19.873ZM37.9657 21.5375C37.2336 21.9508 36.2202 22.254 34.86 22.3815L35.14 25.3685C36.7798 25.2147 38.2352 24.8304 39.4405 24.15L37.9657 21.5375ZM34.86 22.3815L10.86 24.6315L11.14 27.6185L35.14 25.3685L34.86 22.3815ZM10.8568 24.6318C9.63725 24.7488 8.54496 24.9849 7.69053 25.4231L9.05947 28.0925C9.42379 27.9057 10.0815 27.72 11.1432 27.6182L10.8568 24.6318ZM7.69053 25.4231C6.73461 25.9133 6.05519 26.7012 5.65074 27.6899L8.42738 28.8258C8.58543 28.4394 8.79664 28.2273 9.05947 28.0925L7.69053 25.4231ZM5.6554 27.6786C5.27946 28.5767 5.09907 29.6628 5.04821 30.8664L8.04554 30.993C8.08843 29.9778 8.23617 29.2827 8.42272 28.837L5.6554 27.6786ZM5.04747 30.8875C5.01568 32.0161 5 33.4298 5 35.125H8C8 33.4452 8.01557 32.062 8.04628 30.9719L5.04747 30.8875ZM6.5 36.625H41.75V33.625H6.5V36.625ZM40.25 35.125V38.875H43.25V35.125H40.25ZM41.75 37.375H2V40.375H41.75V37.375ZM3.5 38.875V34.375H0.5V38.875H3.5Z" fill="#00159E" mask="url(#path-1-outside-1_296_4538)"/>
</svg>
