<svg width="44" height="42" viewBox="0 0 44 42" fill="none" xmlns="http://www.w3.org/2000/svg">
<mask id="path-1-outside-1_296_4541" maskUnits="userSpaceOnUse" x="0" y="-0.125" width="44" height="42" fill="black">
<rect fill="white" y="-0.125" width="44" height="42"/>
<path d="M33.5 18.625C34.25 18.625 34.9062 18.5625 35.4688 18.4375C36.0312 18.3125 36.4922 18.0703 36.8516 17.7109C37.2266 17.3359 37.5078 16.8047 37.6953 16.1172C37.8828 15.4297 37.9766 14.5234 37.9766 13.3984C37.9766 12.1484 37.8828 11.0938 37.6953 10.2344C37.5078 9.375 37.1953 8.66406 36.7578 8.10156C36.3203 7.53906 35.7266 7.10938 34.9766 6.8125C34.2422 6.51562 33.3203 6.29688 32.2109 6.15625C31.1016 6.01562 29.7891 5.9375 28.2734 5.92188C26.7578 5.89063 25 5.875 23 5.875C20.25 5.875 17.9297 5.91406 16.0391 5.99219C14.1641 6.05469 12.6094 6.1875 11.375 6.39062C10.1562 6.57812 9.21875 6.84375 8.5625 7.1875C7.90625 7.53125 7.42188 7.98438 7.10938 8.54688C6.8125 9.09375 6.63281 9.76562 6.57031 10.5625C6.52344 11.3594 6.5 12.2969 6.5 13.375H2C2 11.4844 2.20312 9.89062 2.60938 8.59375C3.03125 7.29688 3.64062 6.23437 4.4375 5.40625C5.25 4.5625 6.25 3.92188 7.4375 3.48438C8.625 3.03125 9.99219 2.71094 11.5391 2.52344C13.1016 2.32031 14.8359 2.20312 16.7422 2.17188C18.6641 2.14063 20.75 2.125 23 2.125C25.25 2.125 27.2891 2.16406 29.1172 2.24219C30.9609 2.30469 32.6016 2.46094 34.0391 2.71094C35.4922 2.96094 36.75 3.32812 37.8125 3.8125C38.875 4.29688 39.75 4.96094 40.4375 5.80469C41.1406 6.63281 41.6562 7.66406 41.9844 8.89844C42.3281 10.1328 42.5 11.625 42.5 13.375C42.5 14.5 42.4219 15.4531 42.2656 16.2344C42.125 17.0156 41.8984 17.6797 41.5859 18.2266C41.2891 18.7578 40.9062 19.2031 40.4375 19.5625C39.9688 19.9062 39.4062 20.2188 38.75 20.5C39.4062 20.7812 39.9688 21.1406 40.4375 21.5781C40.9062 22.0156 41.2891 22.5547 41.5859 23.1953C41.8984 23.8203 42.125 24.5625 42.2656 25.4219C42.4219 26.2656 42.5 27.25 42.5 28.375C42.5 30.125 42.3281 31.6172 41.9844 32.8516C41.6562 34.0859 41.1406 35.125 40.4375 35.9688C39.75 36.7969 38.875 37.4531 37.8125 37.9375C36.75 38.4219 35.4922 38.7891 34.0391 39.0391C32.6016 39.2891 30.9609 39.4453 29.1172 39.5078C27.2891 39.5859 25.25 39.625 23 39.625C20.75 39.625 18.6641 39.6094 16.7422 39.5781C14.8359 39.5469 13.1016 39.4219 11.5391 39.2031C9.99219 38.9844 8.625 38.6406 7.4375 38.1719C6.25 37.6875 5.25 37 4.4375 36.1094C3.64062 35.2188 3.03125 34.0859 2.60938 32.7109C2.20312 31.3359 2 29.6406 2 27.625H6.5C6.5 28.8125 6.53125 29.8438 6.59375 30.7188C6.65625 31.5781 6.83594 32.3125 7.13281 32.9219C7.42969 33.5312 7.90625 34.0312 8.5625 34.4219C9.21875 34.7969 10.1562 35.0938 11.375 35.3125C12.6094 35.5312 14.1641 35.6797 16.0391 35.7578C17.9297 35.8359 20.25 35.875 23 35.875C25 35.875 26.7578 35.8672 28.2734 35.8516C29.7891 35.8203 31.1016 35.7344 32.2109 35.5938C33.3203 35.4531 34.2422 35.2344 34.9766 34.9375C35.7266 34.6406 36.3203 34.2109 36.7578 33.6484C37.1953 33.0859 37.5078 32.375 37.6953 31.5156C37.8828 30.6562 37.9766 29.6016 37.9766 28.3516C37.9766 27.0391 37.8828 25.9922 37.6953 25.2109C37.5078 24.4141 37.2266 23.8047 36.8516 23.3828C36.4922 22.9609 36.0312 22.6875 35.4688 22.5625C34.9062 22.4375 34.25 22.375 33.5 22.375H17V18.625H33.5Z"/>
</mask>
<path d="M34.9766 6.8125L34.4144 8.2032L34.4245 8.20721L34.9766 6.8125ZM28.2734 5.92188L28.2425 7.42156L28.2502 7.42172L28.258 7.4218L28.2734 5.92188ZM16.0391 5.99219L16.089 7.4914L16.101 7.49091L16.0391 5.99219ZM11.375 6.39062L11.6031 7.87318L11.6108 7.87199L11.6186 7.87072L11.375 6.39062ZM7.10938 8.54688L5.79814 7.81841L5.79459 7.82481L5.79109 7.83124L7.10938 8.54688ZM6.57031 10.5625L5.0749 10.4452L5.07376 10.4598L5.0729 10.4744L6.57031 10.5625ZM6.5 13.375V14.875H8V13.375H6.5ZM2 13.375H0.5V14.875H2V13.375ZM2.60938 8.59375L1.18295 8.12973L1.18041 8.13753L1.17796 8.14536L2.60938 8.59375ZM4.4375 5.40625L3.35702 4.36579L3.35664 4.36618L4.4375 5.40625ZM7.4375 3.48438L7.95606 4.89189L7.96418 4.8889L7.97226 4.88581L7.4375 3.48438ZM11.5391 2.52344L11.7196 4.01259L11.7324 4.01092L11.5391 2.52344ZM16.7422 2.17188L16.7178 0.672073L16.7176 0.672077L16.7422 2.17188ZM29.1172 2.24219L29.0531 3.74088L29.0664 3.74133L29.1172 2.24219ZM34.0391 2.71094L33.7821 4.18876L33.7847 4.18922L34.0391 2.71094ZM40.4375 5.80469L39.2746 6.7522L39.2842 6.76396L39.2941 6.77553L40.4375 5.80469ZM41.9844 8.89844L40.5347 9.28379L40.537 9.29233L40.5394 9.30085L41.9844 8.89844ZM42.2656 16.2344L40.7948 15.9402L40.7919 15.9544L40.7893 15.9686L42.2656 16.2344ZM41.5859 18.2266L40.2836 17.4824L40.28 17.4886L40.2765 17.4948L41.5859 18.2266ZM40.4375 19.5625L41.3245 20.7721L41.3374 20.7626L41.3501 20.7529L40.4375 19.5625ZM38.75 20.5L38.1591 19.1213L34.9421 20.5L38.1591 21.8787L38.75 20.5ZM41.5859 23.1953L40.225 23.826L40.2343 23.8462L40.2443 23.8661L41.5859 23.1953ZM42.2656 25.4219L40.7853 25.6641L40.7878 25.6796L40.7907 25.695L42.2656 25.4219ZM41.9844 32.8516L40.5394 32.4492L40.537 32.4577L40.5347 32.4662L41.9844 32.8516ZM40.4375 35.9688L39.2852 35.0085L39.2834 35.0106L40.4375 35.9688ZM34.0391 39.0391L33.7847 37.5608L33.7821 37.5612L34.0391 39.0391ZM29.1172 39.5078L29.0664 38.0086L29.0531 38.0092L29.1172 39.5078ZM16.7422 39.5781L16.7176 41.0779L16.7178 41.0779L16.7422 39.5781ZM11.5391 39.2031L11.329 40.6884L11.3311 40.6886L11.5391 39.2031ZM7.4375 38.1719L6.87097 39.5608L6.87884 39.564L6.88675 39.5671L7.4375 38.1719ZM4.4375 36.1094L3.31964 37.1096L3.32447 37.115L3.32935 37.1203L4.4375 36.1094ZM2.60938 32.7109L1.17085 33.136L1.17306 33.1435L1.17535 33.1509L2.60938 32.7109ZM2 27.625V26.125H0.5V27.625H2ZM6.5 27.625H8V26.125H6.5V27.625ZM6.59375 30.7188L5.09756 30.8256L5.0977 30.8276L6.59375 30.7188ZM8.5625 34.4219L7.79527 35.7108L7.80672 35.7176L7.81829 35.7242L8.5625 34.4219ZM11.375 35.3125L11.11 36.7889L11.1133 36.7895L11.375 35.3125ZM16.0391 35.7578L15.9766 37.2565L15.9771 37.2565L16.0391 35.7578ZM28.2734 35.8516L28.2889 37.3515L28.2966 37.3514L28.3044 37.3512L28.2734 35.8516ZM34.9766 34.9375L34.4245 33.5428L34.4144 33.5468L34.9766 34.9375ZM37.6953 25.2109L36.2352 25.5545L36.2367 25.561L37.6953 25.2109ZM36.8516 23.3828L35.7097 24.3555L35.7199 24.3675L35.7304 24.3794L36.8516 23.3828ZM17 22.375H15.5V23.875H17V22.375ZM17 18.625V17.125H15.5V18.625H17ZM33.5 20.125C34.3286 20.125 35.0984 20.0564 35.7941 19.9018L35.1434 16.9732C34.7141 17.0686 34.1714 17.125 33.5 17.125V20.125ZM35.7941 19.9018C36.5968 19.7234 37.3251 19.3587 37.9122 18.7716L35.7909 16.6503C35.6593 16.7819 35.4657 16.9016 35.1434 16.9732L35.7941 19.9018ZM37.9122 18.7716C38.5246 18.1592 38.909 17.3678 39.1425 16.5119L36.2482 15.7225C36.1066 16.2416 35.9286 16.5126 35.7909 16.6503L37.9122 18.7716ZM39.1425 16.5119C39.3792 15.6438 39.4766 14.5893 39.4766 13.3984H36.4766C36.4766 14.4575 36.3864 15.2156 36.2482 15.7225L39.1425 16.5119ZM39.4766 13.3984C39.4766 12.0819 39.3786 10.9127 39.1608 9.91462L36.2298 10.5541C36.387 11.2748 36.4766 12.2149 36.4766 13.3984H39.4766ZM39.1608 9.91462C38.9365 8.88652 38.5453 7.95649 37.9418 7.18065L35.5738 9.02247C35.8454 9.37163 36.0791 9.86348 36.2298 10.5541L39.1608 9.91462ZM37.9418 7.18065C37.319 6.37982 36.4943 5.80002 35.5286 5.41779L34.4245 8.20721C34.9588 8.41873 35.3217 8.6983 35.5738 9.02247L37.9418 7.18065ZM35.5387 5.42183C34.6467 5.06122 33.589 4.81894 32.3996 4.66816L32.0223 7.64434C33.0516 7.77481 33.8377 7.97003 34.4144 8.20317L35.5387 5.42183ZM32.3996 4.66816C31.2167 4.51821 29.8436 4.43798 28.2889 4.42195L28.258 7.4218C29.7345 7.43702 30.9864 7.51304 32.0223 7.64434L32.3996 4.66816ZM28.3044 4.42219C26.7758 4.39068 25.0073 4.375 23 4.375V7.375C24.9927 7.375 26.7398 7.39057 28.2425 7.42156L28.3044 4.42219ZM23 4.375C20.2377 4.375 17.8953 4.4142 15.9771 4.49347L16.101 7.49091C17.9641 7.41392 20.2623 7.375 23 7.375V4.375ZM15.9891 4.49302C14.0778 4.55673 12.453 4.69306 11.1314 4.91053L11.6186 7.87072C12.7658 7.68194 14.2503 7.55265 16.089 7.49135L15.9891 4.49302ZM11.1469 4.90807C9.85825 5.10632 8.73438 5.40415 7.86649 5.85875L9.25851 8.51625C9.70312 8.28335 10.4543 8.04993 11.6031 7.87318L11.1469 4.90807ZM7.86649 5.85875C6.99125 6.31721 6.27333 6.96306 5.79814 7.81841L8.42061 9.27534C8.57042 9.00569 8.82125 8.74529 9.25851 8.51625L7.86649 5.85875ZM5.79109 7.83124C5.36966 8.60756 5.14935 9.49601 5.0749 10.4452L8.06572 10.6798C8.11627 10.0352 8.25534 9.57994 8.42766 9.26251L5.79109 7.83124ZM5.0729 10.4744C5.02382 11.3087 5 12.2769 5 13.375H8C8 12.3168 8.02305 11.41 8.06772 10.6506L5.0729 10.4744ZM6.5 11.875H2V14.875H6.5V11.875ZM3.5 13.375C3.5 11.5817 3.69389 10.1495 4.04079 9.04214L1.17796 8.14536C0.71236 9.6317 0.5 11.387 0.5 13.375H3.5ZM4.0358 9.05777C4.40049 7.93667 4.90545 7.08327 5.51836 6.44632L3.35664 4.36618C2.3758 5.38548 1.66201 6.65708 1.18295 8.12973L4.0358 9.05777ZM5.51798 6.44671C6.16092 5.77904 6.96378 5.25747 7.95606 4.89189L6.91894 2.07686C5.53622 2.58628 4.33908 3.34596 3.35702 4.36579L5.51798 6.44671ZM7.97226 4.88581C9.02345 4.4847 10.2678 4.18851 11.7196 4.01254L11.3586 1.03434C9.71662 1.23336 8.22655 1.5778 6.90274 2.08294L7.97226 4.88581ZM11.7324 4.01092C13.2288 3.81639 14.9057 3.70218 16.7668 3.67167L16.7176 0.672077C14.7662 0.704067 12.9743 0.82423 11.3457 1.03595L11.7324 4.01092ZM16.7666 3.67168C18.6791 3.64058 20.7568 3.625 23 3.625V0.625C20.7432 0.625 18.649 0.640671 16.7178 0.672073L16.7666 3.67168ZM23 3.625C25.2333 3.625 27.2505 3.66378 29.0531 3.74082L29.1812 0.743555C27.3276 0.66434 25.2667 0.625 23 0.625V3.625ZM29.0664 3.74133C30.8581 3.80206 32.4277 3.95322 33.7821 4.18876L34.2961 1.23312C32.7754 0.968651 31.0637 0.807311 29.168 0.743049L29.0664 3.74133ZM33.7847 4.18922C35.1425 4.42281 36.271 4.75828 37.1903 5.17736L38.4347 2.44764C37.229 1.89797 35.8419 1.49907 34.2934 1.23266L33.7847 4.18922ZM37.1903 5.17736C38.0585 5.57317 38.7433 6.10014 39.2746 6.7522L41.6004 4.85718C40.7567 3.82173 39.6915 3.02058 38.4347 2.44764L37.1903 5.17736ZM39.2941 6.77553C39.8296 7.40634 40.2539 8.22733 40.5347 9.28379L43.434 8.51309C43.0586 7.1008 42.4516 5.85929 41.5809 4.83384L39.2941 6.77553ZM40.5394 9.30085C40.8361 10.3663 41 11.7151 41 13.375H44C44 11.5349 43.8202 9.89932 43.4294 8.49603L40.5394 9.30085ZM41 13.375C41 14.4381 40.9255 15.2863 40.7948 15.9402L43.7365 16.5285C43.9182 15.62 44 14.5619 44 13.375H41ZM40.7893 15.9686C40.6715 16.6235 40.4925 17.1168 40.2836 17.4824L42.8883 18.9708C43.3044 18.2426 43.5785 17.4077 43.7419 16.5001L40.7893 15.9686ZM40.2765 17.4948C40.0762 17.8533 39.8265 18.1408 39.5249 18.3721L41.3501 20.7529C41.986 20.2654 42.5019 19.6623 42.8954 18.9583L40.2765 17.4948ZM39.5505 18.3529C39.1917 18.616 38.7333 18.8752 38.1591 19.1213L39.3409 21.8787C40.0792 21.5623 40.7458 21.1965 41.3245 20.7721L39.5505 18.3529ZM38.1591 21.8787C38.6739 22.0993 39.0856 22.3682 39.414 22.6747L41.461 20.4815C40.8519 19.913 40.1386 19.4632 39.3409 19.1213L38.1591 21.8787ZM39.414 22.6747C39.7276 22.9674 40.0012 23.3432 40.225 23.826L42.9469 22.5646C42.5769 21.7662 42.0849 21.0639 41.461 20.4815L39.414 22.6747ZM40.2443 23.8661C40.475 24.3276 40.6633 24.9187 40.7853 25.6641L43.7459 25.1796C43.5867 24.2063 43.3218 23.313 42.9276 22.5245L40.2443 23.8661ZM40.7907 25.695C40.9261 26.4259 41 27.3151 41 28.375H44C44 27.1849 43.9177 26.1053 43.7405 25.1487L40.7907 25.695ZM41 28.375C41 30.0349 40.8361 31.3837 40.5394 32.4492L43.4294 33.254C43.8202 31.8507 44 30.2151 44 28.375H41ZM40.5347 32.4662C40.2536 33.5238 39.8275 34.3576 39.2852 35.0085L41.5898 36.929C42.4537 35.8924 43.0589 34.6481 43.434 33.2369L40.5347 32.4662ZM39.2834 35.0106C38.7522 35.6504 38.0649 36.1739 37.1903 36.5726L38.4347 39.3024C39.6851 38.7323 40.7478 37.9434 41.5916 36.9269L39.2834 35.0106ZM37.1903 36.5726C36.271 36.9917 35.1425 37.3272 33.7847 37.5608L34.2934 40.5173C35.8419 40.2509 37.229 39.852 38.4347 39.3024L37.1903 36.5726ZM33.7821 37.5612C32.4277 37.7968 30.8581 37.9479 29.0664 38.0087L29.168 41.007C31.0637 40.9427 32.7754 40.7813 34.2961 40.5169L33.7821 37.5612ZM29.0531 38.0092C27.2505 38.0862 25.2333 38.125 23 38.125V41.125C25.2667 41.125 27.3276 41.0857 29.1812 41.0064L29.0531 38.0092ZM23 38.125C20.7568 38.125 18.6791 38.1094 16.7666 38.0783L16.7178 41.0779C18.649 41.1093 20.7432 41.125 23 41.125V38.125ZM16.7668 38.0783C14.9097 38.0479 13.2378 37.9263 11.747 37.7176L11.3311 40.6886C12.9653 40.9174 14.7621 41.0459 16.7176 41.0779L16.7668 38.0783ZM11.7491 37.7179C10.294 37.5121 9.04494 37.1938 7.98825 36.7766L6.88675 39.5671C8.20506 40.0875 9.69036 40.4566 11.329 40.6883L11.7491 37.7179ZM8.00403 36.783C7.00945 36.3773 6.19844 35.814 5.54565 35.0984L3.32935 37.1203C4.30156 38.186 5.49055 38.9977 6.87097 39.5608L8.00403 36.783ZM5.55536 35.1092C4.92954 34.4097 4.41437 33.4801 4.0434 32.271L1.17535 33.1509C1.64813 34.6918 2.35171 36.0278 3.31964 37.1096L5.55536 35.1092ZM4.0479 32.2859C3.69521 31.0922 3.5 29.5502 3.5 27.625H0.5C0.5 29.7311 0.71104 31.5797 1.17085 33.136L4.0479 32.2859ZM2 29.125H6.5V26.125H2V29.125ZM5 27.625C5 28.8366 5.03181 29.9052 5.09756 30.8256L8.08994 30.6119C8.03069 29.7823 8 28.7884 8 27.625H5ZM5.0977 30.8276C5.17045 31.8279 5.38453 32.7582 5.78433 33.5788L8.4813 32.2649C8.28734 31.8668 8.14205 31.3284 8.0898 30.6099L5.0977 30.8276ZM5.78433 33.5788C6.22501 34.4834 6.92069 35.1902 7.79527 35.7108L9.32973 33.1329C8.89181 32.8723 8.63436 32.5791 8.4813 32.2649L5.78433 33.5788ZM7.81829 35.7242C8.68775 36.2211 9.81609 36.5567 11.11 36.7889L11.64 33.8361C10.4964 33.6308 9.74975 33.3727 9.30671 33.1195L7.81829 35.7242ZM11.1133 36.7895C12.4372 37.0241 14.0641 37.1768 15.9766 37.2565L16.1015 34.2591C14.264 34.1825 12.7816 34.0384 11.6367 33.8355L11.1133 36.7895ZM15.9771 37.2565C17.8953 37.3358 20.2377 37.375 23 37.375V34.375C20.2623 34.375 17.9641 34.3361 16.101 34.2591L15.9771 37.2565ZM23 37.375C25.0036 37.375 26.7668 37.3672 28.2889 37.3515L28.258 34.3516C26.7488 34.3672 24.9964 34.375 23 34.375V37.375ZM28.3044 37.3512C29.8556 37.3193 31.2232 37.231 32.3996 37.0818L32.0223 34.1057C30.9799 34.2378 29.7226 34.3214 28.2425 34.3519L28.3044 37.3512ZM32.3996 37.0818C33.589 36.9311 34.6467 36.6888 35.5387 36.3282L34.4144 33.5468C33.8377 33.78 33.0516 33.9752 32.0223 34.1057L32.3996 37.0818ZM35.5286 36.3322C36.4943 35.95 37.319 35.3702 37.9418 34.5693L35.5738 32.7275C35.3217 33.0517 34.9588 33.3313 34.4245 33.5428L35.5286 36.3322ZM37.9418 34.5693C38.5453 33.7935 38.9365 32.8635 39.1608 31.8354L36.2298 31.1959C36.0791 31.8865 35.8454 32.3784 35.5738 32.7275L37.9418 34.5693ZM39.1608 31.8354C39.3786 30.8373 39.4766 29.6681 39.4766 28.3516H36.4766C36.4766 29.535 36.387 30.4752 36.2298 31.1959L39.1608 31.8354ZM39.4766 28.3516C39.4766 26.9854 39.3807 25.8058 39.1539 24.8609L36.2367 25.561C36.3849 26.1786 36.4766 27.0928 36.4766 28.3516H39.4766ZM39.1554 24.8674C38.9349 23.9299 38.5709 23.0593 37.9727 22.3863L35.7304 24.3794C35.8822 24.5501 36.0808 24.8982 36.2352 25.5545L39.1554 24.8674ZM37.9934 22.4101C37.4137 21.7296 36.6614 21.2909 35.7941 21.0982L35.1434 24.0268C35.4011 24.0841 35.5706 24.1923 35.7097 24.3555L37.9934 22.4101ZM35.7941 21.0982C35.0984 20.9436 34.3286 20.875 33.5 20.875V23.875C34.1714 23.875 34.7141 23.9314 35.1434 24.0268L35.7941 21.0982ZM33.5 20.875H17V23.875H33.5V20.875ZM18.5 22.375V18.625H15.5V22.375H18.5ZM17 20.125H33.5V17.125H17V20.125Z" fill="#00159E" mask="url(#path-1-outside-1_296_4541)"/>
</svg>
