<svg width="46" height="40" viewBox="0 0 46 40" fill="none" xmlns="http://www.w3.org/2000/svg">
<mask id="path-1-outside-1_296_4525" maskUnits="userSpaceOnUse" x="0" y="-0.125" width="46" height="40" fill="black">
<rect fill="white" y="-0.125" width="46" height="40"/>
<path d="M38 30.375V37.875H33.5V30.375H2V25.875L32 1.875H38V26.625H44V30.375H38ZM33.5 26.625V4.875L6.5 26.625H33.5Z"/>
</mask>
<path d="M38 30.375V28.875H36.5V30.375H38ZM38 37.875V39.375H39.5V37.875H38ZM33.5 37.875H32V39.375H33.5V37.875ZM33.5 30.375H35V28.875H33.5V30.375ZM2 30.375H0.5V31.875H2V30.375ZM2 25.875L1.06296 24.7037L0.5 25.1541V25.875H2ZM32 1.875V0.375H31.4738L31.063 0.703697L32 1.875ZM38 1.875H39.5V0.375H38V1.875ZM38 26.625H36.5V28.125H38V26.625ZM44 26.625H45.5V25.125H44V26.625ZM44 30.375V31.875H45.5V30.375H44ZM33.5 26.625V28.125H35V26.625H33.5ZM33.5 4.875H35V1.74051L32.559 3.70687L33.5 4.875ZM6.5 26.625L5.55901 25.4569L2.24684 28.125H6.5V26.625ZM36.5 30.375V37.875H39.5V30.375H36.5ZM38 36.375H33.5V39.375H38V36.375ZM35 37.875V30.375H32V37.875H35ZM33.5 28.875H2V31.875H33.5V28.875ZM3.5 30.375V25.875H0.5V30.375H3.5ZM2.93704 27.0463L32.937 3.0463L31.063 0.703697L1.06296 24.7037L2.93704 27.0463ZM32 3.375H38V0.375H32V3.375ZM36.5 1.875V26.625H39.5V1.875H36.5ZM38 28.125H44V25.125H38V28.125ZM42.5 26.625V30.375H45.5V26.625H42.5ZM44 28.875H38V31.875H44V28.875ZM35 26.625V4.875H32V26.625H35ZM32.559 3.70687L5.55901 25.4569L7.44099 27.7931L34.441 6.04313L32.559 3.70687ZM6.5 28.125H33.5V25.125H6.5V28.125Z" fill="#00159E" mask="url(#path-1-outside-1_296_4525)"/>
</svg>
