<svg width="44" height="41" viewBox="0 0 44 41" fill="none" xmlns="http://www.w3.org/2000/svg">
<mask id="path-1-outside-1_296_4528" maskUnits="userSpaceOnUse" x="0" y="-0.125" width="44" height="41" fill="black">
<rect fill="white" y="-0.125" width="44" height="41"/>
<path d="M29 13.125C31 13.125 32.7188 13.2344 34.1562 13.4531C35.6094 13.6563 36.8359 13.9844 37.8359 14.4375C38.8359 14.875 39.6406 15.4375 40.25 16.125C40.8594 16.8125 41.3281 17.6328 41.6562 18.5859C42 19.5234 42.2266 20.6016 42.3359 21.8203C42.4453 23.0234 42.5 24.375 42.5 25.875C42.5 27.8281 42.3281 29.5078 41.9844 30.9141C41.6562 32.3047 41.1406 33.4766 40.4375 34.4297C39.75 35.3672 38.875 36.1172 37.8125 36.6797C36.75 37.2266 35.4922 37.6406 34.0391 37.9219C32.6016 38.2188 30.9609 38.4062 29.1172 38.4844C27.2891 38.5781 25.25 38.625 23 38.625C20.75 38.625 18.6641 38.6094 16.7422 38.5781C14.8359 38.5469 13.1016 38.4219 11.5391 38.2031C9.99219 37.9844 8.625 37.6406 7.4375 37.1719C6.25 36.6875 5.25 36 4.4375 35.1094C3.64062 34.2188 3.03125 33.0859 2.60938 31.7109C2.20312 30.3359 2 28.6406 2 26.625H6.5C6.5 27.8125 6.52344 28.8438 6.57031 29.7188C6.63281 30.5781 6.8125 31.3125 7.10938 31.9219C7.42188 32.5312 7.90625 33.0312 8.5625 33.4219C9.21875 33.7969 10.1562 34.0938 11.375 34.3125C12.6094 34.5312 14.1641 34.6797 16.0391 34.7578C17.9297 34.8359 20.25 34.875 23 34.875C25 34.875 26.7578 34.8594 28.2734 34.8281C29.7891 34.7969 31.1016 34.6953 32.2109 34.5234C33.3359 34.3516 34.2656 34.0859 35 33.7266C35.7344 33.3516 36.3203 32.8281 36.7578 32.1562C37.2109 31.4844 37.5312 30.6406 37.7188 29.625C37.9062 28.5938 38 27.3359 38 25.8516C38 23.8516 37.8828 22.2578 37.6484 21.0703C37.4141 19.8828 36.9688 18.9844 36.3125 18.375C35.6562 17.75 34.7422 17.3438 33.5703 17.1562C32.3984 16.9688 30.875 16.875 29 16.875H17C14.9375 16.875 13.2656 16.9688 11.9844 17.1562C10.7031 17.3281 9.6875 17.5781 8.9375 17.9062C8.1875 18.2344 7.64062 18.6328 7.29688 19.1016C6.95312 19.5547 6.6875 20.0625 6.5 20.625H2V1.875H41V5.625H6.5V16.875C6.51562 16.8438 6.57812 16.7344 6.6875 16.5469C6.8125 16.3438 7.01562 16.1016 7.29688 15.8203C7.59375 15.5391 7.98438 15.2422 8.46875 14.9297C8.96875 14.6172 9.60156 14.3281 10.3672 14.0625C11.1484 13.7969 12.0781 13.5781 13.1562 13.4062C14.25 13.2188 15.5312 13.125 17 13.125H29Z"/>
</mask>
<path d="M34.1562 13.4531L33.9306 14.9361L33.9396 14.9374L33.9486 14.9387L34.1562 13.4531ZM37.8359 14.4375L37.2168 15.8038L37.2257 15.8078L37.2347 15.8117L37.8359 14.4375ZM41.6562 18.5859L40.2379 19.0742L40.2428 19.0883L40.2479 19.1023L41.6562 18.5859ZM42.3359 21.8203L40.8419 21.9544L40.8421 21.9561L42.3359 21.8203ZM41.9844 30.9141L40.5272 30.5579L40.5245 30.5696L41.9844 30.9141ZM40.4375 34.4297L39.2304 33.5392L39.2279 33.5426L40.4375 34.4297ZM37.8125 36.6797L38.499 38.0134L38.5067 38.0094L38.5143 38.0054L37.8125 36.6797ZM34.0391 37.9219L33.754 36.4492L33.7448 36.451L33.7357 36.4529L34.0391 37.9219ZM29.1172 38.4844L29.0537 36.9857L29.0404 36.9863L29.1172 38.4844ZM16.7422 38.5781L16.7176 40.0779L16.7178 40.0779L16.7422 38.5781ZM11.5391 38.2031L11.329 39.6884L11.3311 39.6886L11.5391 38.2031ZM7.4375 37.1719L6.87097 38.5608L6.87884 38.564L6.88675 38.5671L7.4375 37.1719ZM4.4375 35.1094L3.31964 36.1096L3.32447 36.115L3.32935 36.1203L4.4375 35.1094ZM2.60938 31.7109L1.17085 32.136L1.17306 32.1435L1.17535 32.1509L2.60938 31.7109ZM2 26.625V25.125H0.5V26.625H2ZM6.5 26.625H8V25.125H6.5V26.625ZM6.57031 29.7188L5.07246 29.799L5.07323 29.8133L5.07426 29.8276L6.57031 29.7188ZM7.10938 31.9219L5.76089 32.5788L5.76763 32.5927L5.77465 32.6063L7.10938 31.9219ZM8.5625 33.4219L7.79527 34.7108L7.80672 34.7176L7.81829 34.7242L8.5625 33.4219ZM11.375 34.3125L11.11 35.7889L11.1133 35.7895L11.375 34.3125ZM16.0391 34.7578L15.9766 36.2565L15.9771 36.2565L16.0391 34.7578ZM32.2109 34.5234L31.9844 33.0406L31.9813 33.0411L32.2109 34.5234ZM35 33.7266L35.6593 35.0739L35.6708 35.0683L35.6822 35.0625L35 33.7266ZM36.7578 32.1562L35.5142 31.3175L35.5074 31.3276L35.5008 31.3377L36.7578 32.1562ZM37.7188 29.625L39.1938 29.8973L39.1946 29.8933L37.7188 29.625ZM36.3125 18.375L35.278 19.4612L35.2849 19.4677L35.2918 19.4742L36.3125 18.375ZM11.9844 17.1562L12.1838 18.6429L12.1927 18.6417L12.2016 18.6404L11.9844 17.1562ZM7.29688 19.1016L8.49191 20.0081L8.49928 19.9984L8.50648 19.9886L7.29688 19.1016ZM6.5 20.625V22.125H7.58114L7.92303 21.0993L6.5 20.625ZM2 20.625H0.5V22.125H2V20.625ZM2 1.875V0.375H0.5V1.875H2ZM41 1.875H42.5V0.375H41V1.875ZM41 5.625V7.125H42.5V5.625H41ZM6.5 5.625V4.125H5V5.625H6.5ZM6.5 16.875H5L7.84164 17.5458L6.5 16.875ZM6.6875 16.5469L5.41001 15.7607L5.40074 15.7758L5.39183 15.7911L6.6875 16.5469ZM7.29688 15.8203L6.26526 14.7314L6.25055 14.7453L6.23621 14.7597L7.29688 15.8203ZM8.46875 14.9297L7.67375 13.6577L7.66461 13.6634L7.65556 13.6692L8.46875 14.9297ZM10.3672 14.0625L9.88432 12.6423L9.87553 12.6454L10.3672 14.0625ZM13.1562 13.4062L13.3924 14.8875L13.4011 14.8862L13.4097 14.8847L13.1562 13.4062ZM29 14.625C30.9503 14.625 32.5896 14.732 33.9306 14.9361L34.3819 11.9702C32.8479 11.7368 31.0497 11.625 29 11.625V14.625ZM33.9486 14.9387C35.3041 15.1282 36.3831 15.426 37.2168 15.8038L38.455 13.0712C37.2888 12.5428 35.9146 12.1843 34.3639 11.9676L33.9486 14.9387ZM37.2347 15.8117C38.0725 16.1783 38.6869 16.6229 39.1275 17.12L41.3725 15.13C40.5943 14.2521 39.5994 13.5717 38.4372 13.0633L37.2347 15.8117ZM39.1275 17.12C39.5937 17.6459 39.9678 18.2896 40.2379 19.0742L43.0746 18.0977C42.6884 16.9761 42.1251 15.9791 41.3725 15.13L39.1275 17.12ZM40.2479 19.1023C40.5377 19.8927 40.7418 20.8381 40.8419 21.9544L43.8299 21.6862C43.7114 20.365 43.4623 19.1542 43.0646 18.0696L40.2479 19.1023ZM40.8421 21.9561C40.9465 23.1049 41 24.41 41 25.875H44C44 24.34 43.9441 22.942 43.8298 21.6845L40.8421 21.9561ZM41 25.875C41 27.7468 40.8346 29.3006 40.5273 30.5579L43.4415 31.2702C43.8216 29.715 44 27.9094 44 25.875H41ZM40.5245 30.5696C40.2335 31.8028 39.7911 32.7791 39.2304 33.5392L41.6446 35.3202C42.4901 34.174 43.079 32.8066 43.4443 31.2585L40.5245 30.5696ZM39.2279 33.5426C38.679 34.2911 37.98 34.8938 37.1107 35.354L38.5143 38.0054C39.77 37.3406 40.821 36.4432 41.6471 35.3167L39.2279 33.5426ZM37.126 35.346C36.216 35.8144 35.0993 36.1888 33.754 36.4492L34.3241 39.3945C35.8851 39.0924 37.284 38.6387 38.499 38.0134L37.126 35.346ZM33.7357 36.4529C32.3943 36.7299 30.8363 36.9102 29.0537 36.9857L29.1807 39.983C31.0855 39.9023 32.8088 39.7076 34.3424 39.3909L33.7357 36.4529ZM29.0404 36.9863C27.2428 37.0785 25.2299 37.125 23 37.125V40.125C25.2701 40.125 27.3353 40.0777 29.194 39.9824L29.0404 36.9863ZM23 37.125C20.7568 37.125 18.6791 37.1094 16.7666 37.0783L16.7178 40.0779C18.649 40.1093 20.7432 40.125 23 40.125V37.125ZM16.7668 37.0783C14.9097 37.0479 13.2378 36.9263 11.747 36.7176L11.3311 39.6886C12.9653 39.9174 14.7621 40.0459 16.7176 40.0779L16.7668 37.0783ZM11.7491 36.7179C10.294 36.5121 9.04494 36.1938 7.98825 35.7766L6.88675 38.5671C8.20506 39.0875 9.69036 39.4566 11.329 39.6883L11.7491 36.7179ZM8.00403 35.783C7.00945 35.3773 6.19844 34.814 5.54565 34.0984L3.32935 36.1203C4.30156 37.186 5.49055 37.9977 6.87097 38.5608L8.00403 35.783ZM5.55536 34.1092C4.92954 33.4097 4.41437 32.4801 4.0434 31.271L1.17535 32.1509C1.64813 33.6918 2.35171 35.0278 3.31964 36.1096L5.55536 34.1092ZM4.0479 31.2859C3.69521 30.0922 3.5 28.5502 3.5 26.625H0.5C0.5 28.7311 0.71104 30.5797 1.17085 32.136L4.0479 31.2859ZM2 28.125H6.5V25.125H2V28.125ZM5 26.625C5 27.8306 5.02375 28.8898 5.07246 29.799L8.06816 29.6385C8.02312 28.7977 8 27.7944 8 26.625H5ZM5.07426 29.8276C5.14701 30.8279 5.36109 31.7582 5.76089 32.5788L8.45786 31.2649C8.26391 30.8668 8.11861 30.3284 8.06636 29.6099L5.07426 29.8276ZM5.77465 32.6063C6.23023 33.4947 6.92558 34.1931 7.79527 34.7108L9.32973 32.1329C8.88692 31.8694 8.61352 31.5678 8.4441 31.2374L5.77465 32.6063ZM7.81829 34.7242C8.68775 35.2211 9.81609 35.5567 11.11 35.7889L11.64 32.8361C10.4964 32.6308 9.74975 32.3727 9.30671 32.1195L7.81829 34.7242ZM11.1133 35.7895C12.4372 36.0241 14.0641 36.1768 15.9766 36.2565L16.1015 33.2591C14.264 33.1825 12.7816 33.0384 11.6367 32.8355L11.1133 35.7895ZM15.9771 36.2565C17.8953 36.3358 20.2377 36.375 23 36.375V33.375C20.2623 33.375 17.9641 33.3361 16.101 33.2591L15.9771 36.2565ZM23 36.375C25.0073 36.375 26.7758 36.3593 28.3044 36.3278L28.2425 33.3284C26.7398 33.3594 24.9927 33.375 23 33.375V36.375ZM28.3044 36.3278C29.8651 36.2956 31.2472 36.1906 32.4406 36.0058L31.9813 33.0411C30.9559 33.2 29.713 33.2981 28.2425 33.3284L28.3044 36.3278ZM32.4375 36.0062C33.6586 35.8197 34.7466 35.5205 35.6593 35.0739L34.3407 32.3792C33.7847 32.6513 33.0133 32.8834 31.9844 33.0406L32.4375 36.0062ZM35.6822 35.0625C36.6431 34.5718 37.43 33.8728 38.0148 32.9748L35.5008 31.3377C35.2106 31.7834 34.8256 32.1314 34.3178 32.3907L35.6822 35.0625ZM38.0014 32.995C38.5968 32.1122 38.9788 31.0621 39.1938 29.8973L36.2437 29.3527C36.0837 30.2191 35.8251 30.8565 35.5142 31.3175L38.0014 32.995ZM39.1946 29.8933C39.4033 28.7455 39.5 27.3921 39.5 25.8516H36.5C36.5 27.2798 36.4092 28.442 36.2429 29.3567L39.1946 29.8933ZM39.5 25.8516C39.5 23.8083 39.3815 22.1046 39.12 20.7799L36.1768 21.3608C36.3841 22.411 36.5 23.8948 36.5 25.8516H39.5ZM39.12 20.7799C38.8456 19.3894 38.2904 18.1646 37.3332 17.2758L35.2918 19.4742C35.6471 19.8041 35.9825 20.3762 36.1768 21.3608L39.12 20.7799ZM37.347 17.2888C36.4121 16.3984 35.1871 15.8958 33.8073 15.6751L33.3333 18.6374C34.2973 18.7917 34.9004 19.1016 35.278 19.4612L37.347 17.2888ZM33.8073 15.6751C32.5256 15.47 30.9145 15.375 29 15.375V18.375C30.8355 18.375 32.2712 18.4675 33.3333 18.6374L33.8073 15.6751ZM29 15.375H17V18.375H29V15.375ZM17 15.375C14.902 15.375 13.1496 15.4698 11.7672 15.6721L12.2016 18.6404C13.3817 18.4677 14.973 18.375 17 18.375V15.375ZM11.7849 15.6696C10.4354 15.8506 9.26609 16.1252 8.33627 16.532L9.53873 19.2805C10.1089 19.031 10.9709 18.8056 12.1838 18.6429L11.7849 15.6696ZM8.33627 16.532C7.43788 16.9251 6.63842 17.4629 6.08727 18.2145L8.50648 19.9886C8.64283 19.8027 8.93712 19.5437 9.53873 19.2805L8.33627 16.532ZM6.10184 18.195C5.65481 18.7842 5.31411 19.4393 5.07697 20.1507L7.92303 21.0993C8.06089 20.6857 8.25144 20.3251 8.49191 20.0081L6.10184 18.195ZM6.5 19.125H2V22.125H6.5V19.125ZM3.5 20.625V1.875H0.5V20.625H3.5ZM2 3.375H41V0.375H2V3.375ZM39.5 1.875V5.625H42.5V1.875H39.5ZM41 4.125H6.5V7.125H41V4.125ZM5 5.625V16.875H8V5.625H5ZM7.84164 17.5458C7.82968 17.5697 7.82256 17.5819 7.83174 17.5654C7.83744 17.5551 7.84686 17.5384 7.86096 17.5137C7.88897 17.4647 7.92938 17.3949 7.98317 17.3027L5.39183 15.7911C5.29818 15.9516 5.2017 16.1175 5.15836 16.2042L7.84164 17.5458ZM7.96499 17.333C8.00154 17.2736 8.11196 17.1265 8.35754 16.881L6.23621 14.7597C5.91929 15.0766 5.62346 15.4139 5.41001 15.7607L7.96499 17.333ZM8.32849 16.9092C8.53694 16.7118 8.84659 16.471 9.28194 16.1901L7.65556 13.6692C7.12216 14.0134 6.65056 14.3664 6.26526 14.7314L8.32849 16.9092ZM9.26375 16.2017C9.64043 15.9663 10.163 15.7211 10.8588 15.4796L9.87553 12.6454C9.04015 12.9352 8.29707 13.2681 7.67375 13.6577L9.26375 16.2017ZM10.85 15.4827C11.53 15.2515 12.373 15.0501 13.3924 14.8875L12.9201 11.925C11.7832 12.1062 10.7668 12.3423 9.88433 12.6423L10.85 15.4827ZM13.4097 14.8847C14.3979 14.7153 15.5908 14.625 17 14.625V11.625C15.4717 11.625 14.1021 11.7222 12.9028 11.9278L13.4097 14.8847ZM17 14.625H29V11.625H17V14.625Z" fill="#00159E" mask="url(#path-1-outside-1_296_4528)"/>
</svg>
