<svg width="44" height="42" viewBox="0 0 44 42" fill="none" xmlns="http://www.w3.org/2000/svg">
<mask id="path-1-outside-1_296_4531" maskUnits="userSpaceOnUse" x="0" y="-0.125" width="44" height="42" fill="black">
<rect fill="white" y="-0.125" width="44" height="42"/>
<path d="M21.5 5.875C19.0781 5.875 17.0234 5.91406 15.3359 5.99219C13.6641 6.07031 12.2734 6.25781 11.1641 6.55469C10.0547 6.83594 9.1875 7.26562 8.5625 7.84375C7.9375 8.42188 7.46875 9.21094 7.15625 10.2109C6.85938 11.2109 6.67188 12.4609 6.59375 13.9609C6.53125 15.4453 6.5 17.25 6.5 19.375C7.71875 18.6406 9.29688 18.0859 11.2344 17.7109C13.1719 17.3203 15.5938 17.125 18.5 17.125H26.0234C29.3984 17.125 32.1562 17.3594 34.2969 17.8281C36.4375 18.2969 38.1094 19 39.3125 19.9375C40.5312 20.875 41.3672 22.0469 41.8203 23.4531C42.2734 24.8594 42.5 26.5 42.5 28.375C42.5 30.25 42.2734 31.8906 41.8203 33.2969C41.3672 34.7031 40.5312 35.875 39.3125 36.8125C38.1094 37.75 36.4375 38.4531 34.2969 38.9219C32.1562 39.3906 29.3984 39.625 26.0234 39.625H18.5C15.75 39.625 13.4297 39.4531 11.5391 39.1094C9.66406 38.7812 8.10938 38.2812 6.875 37.6094C5.65625 36.9219 4.71875 36.0625 4.0625 35.0312C3.40625 34 2.92188 32.7891 2.60938 31.3984C2.3125 30.0078 2.13281 28.4375 2.07031 26.6875C2.02344 24.9375 2 23 2 20.875C2 18.625 2.03125 16.6016 2.09375 14.8047C2.15625 12.9922 2.36719 11.3984 2.72656 10.0234C3.08594 8.63281 3.65625 7.4375 4.4375 6.4375C5.21875 5.4375 6.32812 4.625 7.76562 4C9.21875 3.35938 11.0547 2.89063 13.2734 2.59375C15.5078 2.28125 18.25 2.125 21.5 2.125C24.25 2.125 26.6406 2.22656 28.6719 2.42969C30.7031 2.63281 32.4375 2.9375 33.875 3.34375C35.3281 3.75 36.5156 4.25 37.4375 4.84375C38.3594 5.4375 39.0781 6.125 39.5938 6.90625C40.125 7.6875 40.4844 8.55469 40.6719 9.50781C40.875 10.4609 40.9766 11.5 40.9766 12.625H37.25C37.25 12 37.2031 11.3984 37.1094 10.8203C37.0312 10.2422 36.8281 9.70312 36.5 9.20312C36.1719 8.70313 35.6719 8.25 35 7.84375C34.3281 7.4375 33.4062 7.08594 32.2344 6.78906C31.0781 6.49219 29.625 6.26563 27.875 6.10938C26.125 5.95312 24 5.875 21.5 5.875ZM18.5 20.875C16.8594 20.875 15.4219 20.8984 14.1875 20.9453C12.9531 20.9766 11.8906 21.0625 11 21.2031C10.125 21.3438 9.39062 21.5469 8.79688 21.8125C8.21875 22.0781 7.75781 22.4375 7.41406 22.8906C7.08594 23.3281 6.85156 23.875 6.71094 24.5312C6.57031 25.1875 6.5 25.9688 6.5 26.875C6.5 28.125 6.57031 29.2188 6.71094 30.1562C6.85156 31.0781 7.08594 31.875 7.41406 32.5469C7.75781 33.2031 8.21875 33.75 8.79688 34.1875C9.39062 34.625 10.125 34.9688 11 35.2188C11.8906 35.4688 12.9531 35.6406 14.1875 35.7344C15.4219 35.8281 16.8594 35.875 18.5 35.875H26.0234C27.7734 35.875 29.2812 35.8281 30.5469 35.7344C31.8281 35.6406 32.9062 35.4844 33.7812 35.2656C34.6719 35.0469 35.3906 34.75 35.9375 34.375C36.5 34 36.9297 33.5391 37.2266 32.9922C37.5391 32.4297 37.7422 31.7734 37.8359 31.0234C37.9453 30.2578 38 29.375 38 28.375C38 27.375 37.9453 26.5 37.8359 25.75C37.7266 24.9844 37.5156 24.3281 37.2031 23.7812C36.9062 23.2188 36.4844 22.75 35.9375 22.375C35.3906 22 34.6719 21.7031 33.7812 21.4844C32.8906 21.2656 31.8125 21.1094 30.5469 21.0156C29.2812 20.9219 27.7734 20.875 26.0234 20.875H18.5Z"/>
</mask>
<path d="M15.3359 5.99219L15.2666 4.49379L15.2659 4.49382L15.3359 5.99219ZM11.1641 6.55469L11.5327 8.00869L11.5423 8.00626L11.5518 8.0037L11.1641 6.55469ZM7.15625 10.2109L5.72453 9.76353L5.72133 9.77376L5.71828 9.78404L7.15625 10.2109ZM6.59375 13.9609L5.09578 13.8829L5.09539 13.8904L5.09508 13.8978L6.59375 13.9609ZM6.5 19.375H5V22.0301L7.27416 20.6598L6.5 19.375ZM11.2344 17.7109L11.5194 19.1837L11.5308 19.1814L11.2344 17.7109ZM39.3125 19.9375L38.3905 21.1207L38.3979 21.1264L39.3125 19.9375ZM39.3125 36.8125L38.3979 35.6235L38.3905 35.6293L39.3125 36.8125ZM11.5391 39.1094L11.8074 37.6335L11.7976 37.6318L11.5391 39.1094ZM6.875 37.6094L6.13802 38.9158L6.14791 38.9214L6.15789 38.9269L6.875 37.6094ZM2.60938 31.3984L1.14243 31.7116L1.14411 31.7195L1.14587 31.7273L2.60938 31.3984ZM2.07031 26.6875L0.570791 26.7277L0.571268 26.741L2.07031 26.6875ZM2.09375 14.8047L3.59284 14.8568L3.59286 14.8564L2.09375 14.8047ZM2.72656 10.0234L4.17782 10.4027L4.17885 10.3987L2.72656 10.0234ZM7.76562 4L8.36372 5.37562L8.37072 5.37254L7.76562 4ZM13.2734 2.59375L13.4724 4.08053L13.4812 4.07929L13.2734 2.59375ZM33.875 3.34375L33.4671 4.78722L33.4711 4.78836L33.875 3.34375ZM39.5938 6.90625L38.3418 7.73251L38.3475 7.74115L38.3534 7.74971L39.5938 6.90625ZM40.6719 9.50781L39.2001 9.79735L39.2024 9.80892L39.2048 9.82046L40.6719 9.50781ZM40.9766 12.625V14.125H42.4766V12.625H40.9766ZM37.25 12.625H35.75V14.125H37.25V12.625ZM37.1094 10.8203L35.6229 11.0212L35.6255 11.0408L35.6287 11.0604L37.1094 10.8203ZM32.2344 6.78906L31.8613 8.24194L31.866 8.24313L32.2344 6.78906ZM14.1875 20.9453L14.2255 22.4448L14.2349 22.4446L14.2444 22.4442L14.1875 20.9453ZM11 21.2031L10.7661 19.7215L10.762 19.7221L11 21.2031ZM8.79688 21.8125L8.18433 20.4433L8.17746 20.4463L8.17062 20.4495L8.79688 21.8125ZM7.41406 22.8906L6.21901 21.984L6.21406 21.9906L7.41406 22.8906ZM6.71094 30.1562L5.22753 30.3788L5.22809 30.3824L6.71094 30.1562ZM7.41406 32.5469L6.06621 33.2051L6.0755 33.2241L6.08532 33.2429L7.41406 32.5469ZM8.79688 34.1875L7.89171 35.3836L7.89936 35.3894L7.90708 35.3951L8.79688 34.1875ZM11 35.2188L10.5879 36.6611L10.5946 36.6629L11 35.2188ZM30.5469 35.7344L30.4374 34.2384L30.4361 34.2385L30.5469 35.7344ZM33.7812 35.2656L33.4235 33.8089L33.4174 33.8104L33.7812 35.2656ZM35.9375 34.375L35.1054 33.1269L35.0973 33.1324L35.0892 33.1379L35.9375 34.375ZM37.2266 32.9922L35.9153 32.2637L35.9118 32.2701L35.9083 32.2766L37.2266 32.9922ZM37.8359 31.0234L36.351 30.8113L36.3492 30.8243L36.3475 30.8374L37.8359 31.0234ZM37.8359 25.75L36.351 25.9621L36.3516 25.9665L37.8359 25.75ZM37.2031 23.7812L35.8765 24.4814L35.8883 24.5036L35.9008 24.5255L37.2031 23.7812ZM21.5 4.375C19.064 4.375 16.9847 4.41425 15.2666 4.49379L15.4053 7.49058C17.0622 7.41387 19.0923 7.375 21.5 7.375V4.375ZM15.2659 4.49382C13.5307 4.57491 12.0249 4.77155 10.7763 5.10567L11.5518 8.0037C12.522 7.74408 13.7974 7.56572 15.406 7.49055L15.2659 4.49382ZM10.7954 5.10069C9.52352 5.42315 8.40514 5.94599 7.54394 6.7426L9.58106 8.9449C9.96986 8.58526 10.5859 8.24873 11.5327 8.00869L10.7954 5.10069ZM7.54394 6.7426C6.68672 7.53553 6.09734 8.57053 5.72453 9.76353L8.58797 10.6583C8.84016 9.85135 9.18828 9.30822 9.58106 8.9449L7.54394 6.7426ZM5.71828 9.78404C5.37653 10.9352 5.17762 12.3116 5.09578 13.8829L8.09172 14.039C8.16613 12.6102 8.34222 11.4867 8.59422 10.6378L5.71828 9.78404ZM5.09508 13.8978C5.03141 15.41 5 17.2371 5 19.375H8C8 17.2629 8.03109 15.4806 8.09242 14.024L5.09508 13.8978ZM7.27416 20.6598C8.2962 20.0439 9.69275 19.5372 11.5194 19.1836L10.9493 16.2383C8.901 16.6347 7.1413 17.2373 5.72584 18.0902L7.27416 20.6598ZM11.5308 19.1814C13.3369 18.8172 15.6515 18.625 18.5 18.625V15.625C15.536 15.625 13.0069 15.8234 10.9379 16.2405L11.5308 19.1814ZM18.5 18.625H26.0234V15.625H18.5V18.625ZM26.0234 18.625C29.3417 18.625 31.9812 18.8566 33.976 19.2934L34.6177 16.3628C32.3313 15.8622 29.4551 15.625 26.0234 15.625V18.625ZM33.976 19.2934C35.9864 19.7336 37.424 20.3676 38.3905 21.1207L40.2345 18.7543C38.7947 17.6324 36.8886 16.8601 34.6177 16.3628L33.976 19.2934ZM38.3979 21.1264C39.3861 21.8866 40.0367 22.8085 40.3926 23.9132L43.248 22.9931C42.6977 21.2852 41.6764 19.8634 40.2271 18.7486L38.3979 21.1264ZM40.3926 23.9132C40.7869 25.137 41 26.6162 41 28.375H44C44 26.3838 43.7599 24.5818 43.248 22.9931L40.3926 23.9132ZM41 28.375C41 30.1338 40.7869 31.613 40.3926 32.8368L43.248 33.7569C43.7599 32.1682 44 30.3662 44 28.375H41ZM40.3926 32.8368C40.0367 33.9415 39.3861 34.8634 38.3979 35.6236L40.2271 38.0014C41.6764 36.8866 42.6977 35.4648 43.248 33.7569L40.3926 32.8368ZM38.3905 35.6293C37.424 36.3824 35.9864 37.0164 33.976 37.4566L34.6177 40.3872C36.8886 39.8899 38.7947 39.1176 40.2345 37.9957L38.3905 35.6293ZM33.976 37.4566C31.9812 37.8934 29.3417 38.125 26.0234 38.125V41.125C29.4551 41.125 32.3313 40.8878 34.6177 40.3872L33.976 37.4566ZM26.0234 38.125H18.5V41.125H26.0234V38.125ZM18.5 38.125C15.805 38.125 13.5807 37.956 11.8074 37.6336L11.2707 40.5852C13.2787 40.9503 15.695 41.125 18.5 41.125V38.125ZM11.7976 37.6318C10.0302 37.3225 8.64271 36.8637 7.59211 36.2919L6.15789 38.9269C7.57604 39.6988 9.29796 40.24 11.2805 40.5869L11.7976 37.6318ZM7.61198 36.3029C6.57655 35.7188 5.83386 35.0209 5.32799 34.2259L2.79701 35.8366C3.60364 37.1041 4.73595 38.1249 6.13802 38.9158L7.61198 36.3029ZM5.32799 34.2259C4.77879 33.3629 4.35357 32.3187 4.07288 31.0696L1.14587 31.7273C1.49018 33.2595 2.03371 34.6371 2.79701 35.8366L5.32799 34.2259ZM4.07632 31.0853C3.80129 29.797 3.62942 28.3158 3.56936 26.634L0.571268 26.741C0.636202 28.5592 0.823706 30.2186 1.14243 31.7116L4.07632 31.0853ZM3.56977 26.6473C3.52332 24.9132 3.5 22.9893 3.5 20.875H0.5C0.5 23.0107 0.523551 24.9618 0.57085 26.7277L3.56977 26.6473ZM3.5 20.875C3.5 18.6383 3.53108 16.6327 3.59284 14.8568L0.594657 14.7525C0.531425 16.5705 0.5 18.6117 0.5 20.875H3.5ZM3.59286 14.8564C3.65253 13.1258 3.85287 11.646 4.17781 10.4027L1.27531 9.64413C0.881506 11.1509 0.659965 12.8586 0.594641 14.753L3.59286 14.8564ZM4.17885 10.3987C4.49349 9.18121 4.98072 8.17866 5.61954 7.36097L3.25546 5.51403C2.33178 6.69634 1.67838 8.08441 1.27427 9.64813L4.17885 10.3987ZM5.61954 7.36097C6.2147 6.59915 7.10228 5.92405 8.36371 5.37561L7.16754 2.62439C5.55397 3.32595 4.2228 4.27585 3.25546 5.51403L5.61954 7.36097ZM8.37072 5.37254C9.65369 4.80693 11.3413 4.36565 13.4724 4.0805L13.0745 1.107C10.7681 1.4156 8.78381 1.91182 7.16053 2.62746L8.37072 5.37254ZM13.4812 4.07929C15.6241 3.77959 18.2921 3.625 21.5 3.625V0.625C18.2079 0.625 15.3916 0.782908 13.0657 1.10821L13.4812 4.07929ZM21.5 3.625C24.216 3.625 26.5546 3.72544 28.5226 3.92224L28.8211 0.937132C26.7267 0.727686 24.284 0.625 21.5 0.625V3.625ZM28.5226 3.92224C30.4957 4.11956 32.1385 4.41175 33.4671 4.78721L34.2829 1.90029C32.7365 1.46325 30.9105 1.14607 28.8211 0.937132L28.5226 3.92224ZM33.4711 4.78836C34.8299 5.16823 35.867 5.61642 36.6253 6.10482L38.2497 3.58268C37.1643 2.88358 35.8263 2.33177 34.2789 1.89914L33.4711 4.78836ZM36.6253 6.10482C37.4017 6.60488 37.959 7.15241 38.3418 7.73251L40.8457 6.07999C40.1973 5.09759 39.3171 4.27012 38.2497 3.58268L36.6253 6.10482ZM38.3534 7.74971C38.7677 8.35904 39.0505 9.03685 39.2001 9.79735L42.1437 9.21828C41.9183 8.07253 41.4823 7.01596 40.8341 6.06279L38.3534 7.74971ZM39.2048 9.82046C39.383 10.6565 39.4766 11.5894 39.4766 12.625H42.4766C42.4766 11.4106 42.367 10.2654 42.1389 9.19516L39.2048 9.82046ZM40.9766 11.125H37.25V14.125H40.9766V11.125ZM38.75 12.625C38.75 11.9249 38.6975 11.2428 38.59 10.5802L35.6287 11.0604C35.7088 11.5541 35.75 12.0751 35.75 12.625H38.75ZM38.5959 10.6194C38.4869 9.81349 38.202 9.06268 37.7541 8.38014L35.2459 10.0261C35.4543 10.3436 35.5756 10.6709 35.6229 11.0212L38.5959 10.6194ZM37.7541 8.38014C37.2708 7.6438 36.5822 7.04757 35.7761 6.56015L34.2239 9.12735C34.7615 9.45243 35.0729 9.76245 35.2459 10.0261L37.7541 8.38014ZM35.7761 6.56015C34.9286 6.04767 33.8496 5.65087 32.6027 5.335L31.866 8.24313C32.9629 8.521 33.7277 8.82733 34.2239 9.12735L35.7761 6.56015ZM32.6074 5.33619C31.3452 5.01212 29.8053 4.77575 28.0084 4.61532L27.7416 7.60343C29.4447 7.7555 30.811 7.97226 31.8613 8.24194L32.6074 5.33619ZM28.0084 4.61532C26.1999 4.45384 24.0276 4.375 21.5 4.375V7.375C23.9724 7.375 26.0501 7.45241 27.7416 7.60343L28.0084 4.61532ZM18.5 19.375C16.8461 19.375 15.3889 19.3986 14.1306 19.4464L14.2444 22.4442C15.4549 22.3983 16.8726 22.375 18.5 22.375V19.375ZM14.1495 19.4458C12.8717 19.4781 11.7403 19.5677 10.7661 19.7215L11.2339 22.6848C12.041 22.5573 13.0346 22.475 14.2255 22.4448L14.1495 19.4458ZM10.762 19.7221C9.80102 19.8766 8.93178 20.1089 8.18433 20.4433L9.40942 23.1817C9.84947 22.9849 10.449 22.8109 11.238 22.6841L10.762 19.7221ZM8.17062 20.4495C7.39527 20.8057 6.72893 21.3119 6.21903 21.984L8.6091 23.7972C8.78669 23.5631 9.04223 23.3505 9.42313 23.1755L8.17062 20.4495ZM6.21406 21.9906C5.72959 22.6366 5.42023 23.3956 5.24423 24.217L8.17764 24.8455C8.28289 24.3544 8.44229 24.0197 8.61406 23.7906L6.21406 21.9906ZM5.24423 24.217C5.07532 25.0052 5 25.8972 5 26.875H8C8 26.0403 8.06531 25.3698 8.17764 24.8455L5.24423 24.217ZM5 26.875C5 28.1775 5.07302 29.3487 5.22753 30.3788L8.19434 29.9337C8.06761 29.0888 8 28.0725 8 26.875H5ZM5.22809 30.3824C5.3862 31.4189 5.65741 32.3681 6.06621 33.2051L8.76191 31.8886C8.51447 31.3819 8.31693 30.7373 8.19378 29.9301L5.22809 30.3824ZM6.08532 33.2429C6.52936 34.0906 7.13333 34.8097 7.89171 35.3836L9.70204 32.9914C9.30417 32.6903 8.98626 32.3156 8.74281 31.8509L6.08532 33.2429ZM7.90708 35.3951C8.67406 35.9602 9.57977 36.373 10.5879 36.661L11.4121 33.7765C10.6702 33.5645 10.1072 33.2898 9.68667 32.9799L7.90708 35.3951ZM10.5946 36.6629C11.6063 36.9469 12.7717 37.1312 14.0739 37.2301L14.3011 34.2387C13.1346 34.1501 12.1749 33.9906 11.4054 33.7746L10.5946 36.6629ZM14.0739 37.2301C15.3559 37.3274 16.8328 37.375 18.5 37.375V34.375C16.8859 34.375 15.4878 34.3288 14.3011 34.2387L14.0739 37.2301ZM18.5 37.375H26.0234V34.375H18.5V37.375ZM26.0234 37.375C27.7977 37.375 29.3444 37.3276 30.6577 37.2303L30.4361 34.2385C29.2181 34.3287 27.7492 34.375 26.0234 34.375V37.375ZM30.6563 37.2304C31.9905 37.1328 33.1598 36.9672 34.1451 36.7208L33.4174 33.8104C32.6527 34.0016 31.6657 34.1485 30.4374 34.2384L30.6563 37.2304ZM34.139 36.7223C35.1427 36.4758 36.0449 36.1202 36.7858 35.6121L35.0892 33.1379C34.7364 33.3798 34.2011 33.6179 33.4235 33.8089L34.139 36.7223ZM36.7696 35.6231C37.5171 35.1247 38.1217 34.4873 38.5448 33.7078L35.9083 32.2766C35.7377 32.5909 35.4829 32.8753 35.1054 33.1269L36.7696 35.6231ZM38.5378 33.7207C38.9583 32.9638 39.2109 32.1173 39.3244 31.2095L36.3475 30.8374C36.2735 31.4296 36.1198 31.8956 35.9153 32.2637L38.5378 33.7207ZM39.3209 31.2356C39.4427 30.3828 39.5 29.4266 39.5 28.375H36.5C36.5 29.3234 36.4479 30.1328 36.351 30.8113L39.3209 31.2356ZM39.5 28.375C39.5 27.324 39.4428 26.3737 39.3202 25.5335L36.3516 25.9665C36.4479 26.6263 36.5 27.426 36.5 28.375H39.5ZM39.3209 25.5379C39.1906 24.6263 38.9306 23.7809 38.5055 23.037L35.9008 24.5255C36.1007 24.8753 36.2625 25.3424 36.351 25.9621L39.3209 25.5379ZM38.5297 23.0811C38.1144 22.2942 37.5244 21.6444 36.7858 21.1379L35.0892 23.6121C35.4443 23.8556 35.6981 24.1433 35.8765 24.4814L38.5297 23.0811ZM36.7858 21.1379C36.0449 20.6298 35.1427 20.2742 34.139 20.0277L33.4235 22.9411C34.2011 23.1321 34.7364 23.3702 35.0892 23.6121L36.7858 21.1379ZM34.139 20.0277C33.1432 19.7831 31.9775 19.6175 30.6577 19.5197L30.4361 22.5115C31.6475 22.6013 32.6381 22.7482 33.4235 22.9411L34.139 20.0277ZM30.6577 19.5197C29.3444 19.4224 27.7977 19.375 26.0234 19.375V22.375C27.7492 22.375 29.2181 22.4213 30.4361 22.5115L30.6577 19.5197ZM26.0234 19.375H18.5V22.375H26.0234V19.375Z" fill="#00159E" mask="url(#path-1-outside-1_296_4531)"/>
</svg>
