<svg width="260" height="60" viewBox="0 0 260 60" fill="none" xmlns="http://www.w3.org/2000/svg">
<rect width="260" height="60" rx="30" fill="url(#paint0_linear_289_3368)"/>
<path d="M65.3318 40V20.4H73.8158C75.5705 20.4 77.0825 20.6893 78.3518 21.268C79.6211 21.828 80.6011 22.64 81.2918 23.704C81.9825 24.768 82.3278 26.0373 82.3278 27.512C82.3278 28.968 81.9825 30.228 81.2918 31.292C80.6011 32.356 79.6211 33.1773 78.3518 33.756C77.0825 34.316 75.5705 34.596 73.8158 34.596H67.8518L69.8678 32.552V40H65.3318ZM69.8678 33.056L67.8518 30.9H73.5638C74.9638 30.9 76.0091 30.6013 76.6998 30.004C77.3905 29.4067 77.7358 28.576 77.7358 27.512C77.7358 26.4293 77.3905 25.5893 76.6998 24.992C76.0091 24.3947 74.9638 24.096 73.5638 24.096H67.8518L69.8678 21.94V33.056ZM90.9356 40.224C89.237 40.224 87.9116 39.776 86.9596 38.88C86.0076 37.984 85.5316 36.696 85.5316 35.016V19.224H89.8996V34.764C89.8996 35.3987 90.0583 35.8933 90.3756 36.248C90.7116 36.584 91.1783 36.752 91.7756 36.752C92.0183 36.752 92.2516 36.724 92.4756 36.668C92.6996 36.612 92.877 36.5467 93.0076 36.472L93.2036 39.86C92.8303 39.972 92.4476 40.056 92.0556 40.112C91.6823 40.1867 91.309 40.224 90.9356 40.224ZM101.487 40.224C100.068 40.224 98.7893 39.9067 97.6506 39.272C96.5119 38.6187 95.6066 37.7133 94.9346 36.556C94.2813 35.3987 93.9546 34.036 93.9546 32.468C93.9546 30.8813 94.2813 29.5093 94.9346 28.352C95.6066 27.1947 96.5119 26.2987 97.6506 25.664C98.7893 25.0293 100.068 24.712 101.487 24.712C102.756 24.712 103.867 24.992 104.819 25.552C105.771 26.112 106.508 26.9613 107.031 28.1C107.553 29.2387 107.815 30.6947 107.815 32.468C107.815 34.2227 107.563 35.6787 107.059 36.836C106.555 37.9747 105.827 38.824 104.875 39.384C103.941 39.944 102.812 40.224 101.487 40.224ZM102.243 36.64C102.952 36.64 103.596 36.472 104.175 36.136C104.753 35.8 105.211 35.324 105.547 34.708C105.901 34.0733 106.079 33.3267 106.079 32.468C106.079 31.5907 105.901 30.844 105.547 30.228C105.211 29.612 104.753 29.136 104.175 28.8C103.596 28.464 102.952 28.296 102.243 28.296C101.515 28.296 100.861 28.464 100.283 28.8C99.7039 29.136 99.2373 29.612 98.8826 30.228C98.5466 30.844 98.3786 31.5907 98.3786 32.468C98.3786 33.3267 98.5466 34.0733 98.8826 34.708C99.2373 35.324 99.7039 35.8 100.283 36.136C100.861 36.472 101.515 36.64 102.243 36.64ZM106.191 40V36.92L106.275 32.44L105.995 27.988V24.936H110.363V40H106.191ZM123.563 24.712C124.757 24.712 125.821 24.9547 126.755 25.44C127.707 25.9067 128.453 26.6347 128.995 27.624C129.536 28.5947 129.807 29.8453 129.807 31.376V40H125.439V32.048C125.439 30.8347 125.168 29.9387 124.627 29.36C124.104 28.7813 123.357 28.492 122.387 28.492C121.696 28.492 121.071 28.6413 120.511 28.94C119.969 29.22 119.54 29.6587 119.223 30.256C118.924 30.8533 118.775 31.6187 118.775 32.552V40H114.407V24.936H118.579V29.108L117.795 27.848C118.336 26.84 119.111 26.0653 120.119 25.524C121.127 24.9827 122.275 24.712 123.563 24.712ZM140.912 25.888L139.372 22.5C140.734 21.6787 142.2 21.072 143.768 20.68C145.354 20.2693 146.96 20.064 148.584 20.064C150.226 20.064 151.841 20.2693 153.428 20.68C155.014 21.072 156.48 21.6787 157.824 22.5L156.284 25.888C155.126 25.216 153.913 24.712 152.644 24.376C151.374 24.04 150.021 23.872 148.584 23.872C147.165 23.872 145.821 24.04 144.552 24.376C143.301 24.712 142.088 25.216 140.912 25.888ZM146.344 40V22.304H150.88V40H146.344ZM159.278 40V24.936H163.45V29.192L162.862 27.96C163.31 26.896 164.028 26.0933 165.018 25.552C166.007 24.992 167.211 24.712 168.63 24.712V28.744C168.443 28.7253 168.275 28.716 168.126 28.716C167.976 28.6973 167.818 28.688 167.65 28.688C166.455 28.688 165.484 29.0333 164.738 29.724C164.01 30.396 163.646 31.4507 163.646 32.888V40H159.278ZM171.254 40V24.936H175.622V40H171.254ZM173.438 22.836C172.636 22.836 171.982 22.6027 171.478 22.136C170.974 21.6693 170.722 21.0907 170.722 20.4C170.722 19.7093 170.974 19.1307 171.478 18.664C171.982 18.1973 172.636 17.964 173.438 17.964C174.241 17.964 174.894 18.188 175.398 18.636C175.902 19.0653 176.154 19.6253 176.154 20.316C176.154 21.044 175.902 21.6507 175.398 22.136C174.913 22.6027 174.26 22.836 173.438 22.836ZM188.58 40.224C187.311 40.224 186.2 39.944 185.248 39.384C184.296 38.824 183.549 37.9747 183.008 36.836C182.485 35.6787 182.224 34.2227 182.224 32.468C182.224 30.6947 182.476 29.2387 182.98 28.1C183.484 26.9613 184.212 26.112 185.164 25.552C186.116 24.992 187.255 24.712 188.58 24.712C189.999 24.712 191.268 25.0387 192.388 25.692C193.527 26.3267 194.423 27.2227 195.076 28.38C195.748 29.5373 196.084 30.9 196.084 32.468C196.084 34.0547 195.748 35.4267 195.076 36.584C194.423 37.7413 193.527 38.6373 192.388 39.272C191.268 39.9067 189.999 40.224 188.58 40.224ZM179.676 45.432V24.936H183.848V28.016L183.764 32.496L184.044 36.948V45.432H179.676ZM187.824 36.64C188.552 36.64 189.196 36.472 189.756 36.136C190.335 35.8 190.792 35.324 191.128 34.708C191.483 34.0733 191.66 33.3267 191.66 32.468C191.66 31.5907 191.483 30.844 191.128 30.228C190.792 29.612 190.335 29.136 189.756 28.8C189.196 28.464 188.552 28.296 187.824 28.296C187.096 28.296 186.443 28.464 185.864 28.8C185.285 29.136 184.828 29.612 184.492 30.228C184.156 30.844 183.988 31.5907 183.988 32.468C183.988 33.3267 184.156 34.0733 184.492 34.708C184.828 35.324 185.285 35.8 185.864 36.136C186.443 36.472 187.096 36.64 187.824 36.64Z" fill="white"/>
<defs>
<linearGradient id="paint0_linear_289_3368" x1="130" y1="60" x2="130" y2="0" gradientUnits="userSpaceOnUse">
<stop stop-color="#032642"/>
<stop offset="1" stop-color="#00159E"/>
</linearGradient>
</defs>
</svg>
