<svg width="260" height="60" viewBox="0 0 260 60" fill="none" xmlns="http://www.w3.org/2000/svg">
<rect width="260" height="60" rx="30" fill="url(#paint0_linear_372_607)"/>
<path d="M60.449 39V22.2H67.721C69.225 22.2 70.521 22.448 71.609 22.944C72.697 23.424 73.537 24.12 74.129 25.032C74.721 25.944 75.017 27.032 75.017 28.296C75.017 29.544 74.721 30.624 74.129 31.536C73.537 32.432 72.697 33.12 71.609 33.6C70.521 34.08 69.225 34.32 67.721 34.32H62.609L64.337 32.616V39H60.449ZM71.129 39L66.929 32.904H71.081L75.329 39H71.129ZM64.337 33.048L62.609 31.224H67.505C68.705 31.224 69.601 30.968 70.193 30.456C70.785 29.928 71.081 29.208 71.081 28.296C71.081 27.368 70.785 26.648 70.193 26.136C69.601 25.624 68.705 25.368 67.505 25.368H62.609L64.337 23.52V33.048ZM84.2415 39.192C82.7695 39.192 81.4735 38.904 80.3535 38.328C79.2495 37.752 78.3935 36.968 77.7855 35.976C77.1775 34.968 76.8735 33.824 76.8735 32.544C76.8735 31.248 77.1695 30.104 77.7615 29.112C78.3695 28.104 79.1935 27.32 80.2335 26.76C81.2735 26.184 82.4575 25.896 83.7855 25.896C85.0015 25.896 86.1135 26.152 87.1215 26.664C88.1295 27.176 88.9375 27.92 89.5455 28.896C90.1535 29.872 90.4575 31.048 90.4575 32.424L80.0415 34.44L79.9935 32.256L88.2495 30.672L86.9775 31.968C86.9775 31.328 86.8415 30.768 86.5695 30.288C86.2975 29.808 85.9215 29.432 85.4415 29.16C84.9775 28.872 84.4255 28.728 83.7855 28.728C83.1455 28.728 82.5775 28.872 82.0815 29.16C81.6015 29.432 81.2255 29.84 80.9535 30.384C80.6815 30.912 80.5455 31.56 80.5455 32.328C80.5455 33.176 80.6975 33.888 81.0015 34.464C81.3055 35.04 81.7375 35.472 82.2975 35.76C82.8735 36.048 83.5535 36.192 84.3375 36.192C85.0255 36.192 85.6255 36.088 86.1375 35.88C86.6495 35.672 87.1295 35.36 87.5775 34.944L89.5695 37.104C88.9775 37.776 88.2335 38.296 87.3375 38.664C86.4415 39.016 85.4095 39.192 84.2415 39.192ZM98.4701 39.192C97.2541 39.192 96.1581 38.92 95.1821 38.376C94.2061 37.816 93.4301 37.04 92.8541 36.048C92.2941 35.056 92.0141 33.888 92.0141 32.544C92.0141 31.184 92.2941 30.008 92.8541 29.016C93.4301 28.024 94.2061 27.256 95.1821 26.712C96.1581 26.168 97.2541 25.896 98.4701 25.896C99.5581 25.896 100.51 26.136 101.326 26.616C102.142 27.096 102.774 27.824 103.222 28.8C103.67 29.776 103.894 31.024 103.894 32.544C103.894 34.048 103.678 35.296 103.246 36.288C102.814 37.264 102.19 37.992 101.374 38.472C100.574 38.952 99.6061 39.192 98.4701 39.192ZM99.1181 36.12C99.7261 36.12 100.278 35.976 100.774 35.688C101.27 35.4 101.662 34.992 101.95 34.464C102.254 33.92 102.406 33.28 102.406 32.544C102.406 31.792 102.254 31.152 101.95 30.624C101.662 30.096 101.27 29.688 100.774 29.4C100.278 29.112 99.7261 28.968 99.1181 28.968C98.4941 28.968 97.9341 29.112 97.4381 29.4C96.9421 29.688 96.5421 30.096 96.2381 30.624C95.9501 31.152 95.8061 31.792 95.8061 32.544C95.8061 33.28 95.9501 33.92 96.2381 34.464C96.5421 34.992 96.9421 35.4 97.4381 35.688C97.9341 35.976 98.4941 36.12 99.1181 36.12ZM102.502 39V36.36L102.574 32.52L102.334 28.704V26.088H106.078V39H102.502ZM115.088 39.192C113.872 39.192 112.776 38.92 111.8 38.376C110.824 37.816 110.048 37.04 109.472 36.048C108.912 35.056 108.632 33.888 108.632 32.544C108.632 31.184 108.912 30.008 109.472 29.016C110.048 28.024 110.824 27.256 111.8 26.712C112.776 26.168 113.872 25.896 115.088 25.896C116.176 25.896 117.128 26.136 117.944 26.616C118.76 27.096 119.392 27.824 119.84 28.8C120.288 29.776 120.512 31.024 120.512 32.544C120.512 34.048 120.296 35.296 119.864 36.288C119.432 37.264 118.808 37.992 117.992 38.472C117.192 38.952 116.224 39.192 115.088 39.192ZM115.736 36.12C116.344 36.12 116.896 35.976 117.392 35.688C117.888 35.4 118.28 34.992 118.568 34.464C118.872 33.92 119.024 33.28 119.024 32.544C119.024 31.792 118.872 31.152 118.568 30.624C118.28 30.096 117.888 29.688 117.392 29.4C116.896 29.112 116.344 28.968 115.736 28.968C115.112 28.968 114.552 29.112 114.056 29.4C113.56 29.688 113.16 30.096 112.856 30.624C112.568 31.152 112.424 31.792 112.424 32.544C112.424 33.28 112.568 33.92 112.856 34.464C113.16 34.992 113.56 35.4 114.056 35.688C114.552 35.976 115.112 36.12 115.736 36.12ZM119.12 39V36.36L119.192 32.52L118.952 28.704V21.192H122.696V39H119.12ZM152.398 21.912C154.35 21.912 155.886 22.488 157.006 23.64C158.126 24.776 158.686 26.456 158.686 28.68V39H154.798V28.8C154.798 27.568 154.478 26.664 153.838 26.088C153.214 25.512 152.414 25.224 151.438 25.224C150.382 25.224 149.51 25.528 148.822 26.136C148.15 26.744 147.814 27.712 147.814 29.04V39H143.926V28.8C143.926 27.568 143.63 26.664 143.038 26.088C142.446 25.512 141.67 25.224 140.71 25.224C140.038 25.224 139.422 25.36 138.862 25.632C138.318 25.888 137.886 26.296 137.566 26.856C137.262 27.416 137.11 28.144 137.11 29.04V39H133.222V22.2H136.99V25.848L136.462 25.248C136.878 24.192 137.558 23.376 138.502 22.8C139.462 22.208 140.614 21.912 141.958 21.912C143.382 21.912 144.566 22.232 145.51 22.872C146.47 23.512 147.134 24.4 147.502 25.536L146.374 25.44C146.854 24.304 147.63 23.432 148.702 22.824C149.774 22.216 151.006 21.912 152.398 21.912ZM168.399 39.192C167.023 39.192 165.799 38.904 164.727 38.328C163.671 37.752 162.831 36.968 162.207 35.976C161.599 34.968 161.295 33.824 161.295 32.544C161.295 31.248 161.599 30.104 162.207 29.112C162.831 28.104 163.671 27.32 164.727 26.76C165.799 26.184 167.023 25.896 168.399 25.896C169.759 25.896 170.975 26.184 172.047 26.76C173.119 27.32 173.959 28.096 174.567 29.088C175.175 30.08 175.479 31.232 175.479 32.544C175.479 33.824 175.175 34.968 174.567 35.976C173.959 36.968 173.119 37.752 172.047 38.328C170.975 38.904 169.759 39.192 168.399 39.192ZM168.399 36.12C169.023 36.12 169.583 35.976 170.079 35.688C170.575 35.4 170.967 34.992 171.255 34.464C171.543 33.92 171.687 33.28 171.687 32.544C171.687 31.792 171.543 31.152 171.255 30.624C170.967 30.096 170.575 29.688 170.079 29.4C169.583 29.112 169.023 28.968 168.399 28.968C167.775 28.968 167.215 29.112 166.719 29.4C166.223 29.688 165.823 30.096 165.519 30.624C165.231 31.152 165.087 31.792 165.087 32.544C165.087 33.28 165.231 33.92 165.519 34.464C165.823 34.992 166.223 35.4 166.719 35.688C167.215 35.976 167.775 36.12 168.399 36.12ZM177.982 39V26.088H181.558V29.736L181.054 28.68C181.438 27.768 182.054 27.08 182.902 26.616C183.75 26.136 184.782 25.896 185.998 25.896V29.352C185.838 29.336 185.694 29.328 185.566 29.328C185.438 29.312 185.302 29.304 185.158 29.304C184.134 29.304 183.302 29.6 182.662 30.192C182.038 30.768 181.726 31.672 181.726 32.904V39H177.982ZM194.538 39.192C193.066 39.192 191.77 38.904 190.65 38.328C189.546 37.752 188.69 36.968 188.082 35.976C187.474 34.968 187.17 33.824 187.17 32.544C187.17 31.248 187.466 30.104 188.058 29.112C188.666 28.104 189.49 27.32 190.53 26.76C191.57 26.184 192.754 25.896 194.082 25.896C195.298 25.896 196.41 26.152 197.418 26.664C198.426 27.176 199.234 27.92 199.842 28.896C200.45 29.872 200.754 31.048 200.754 32.424L190.338 34.44L190.29 32.256L198.546 30.672L197.274 31.968C197.274 31.328 197.138 30.768 196.866 30.288C196.594 29.808 196.218 29.432 195.738 29.16C195.274 28.872 194.722 28.728 194.082 28.728C193.442 28.728 192.874 28.872 192.378 29.16C191.898 29.432 191.522 29.84 191.25 30.384C190.978 30.912 190.842 31.56 190.842 32.328C190.842 33.176 190.994 33.888 191.298 34.464C191.602 35.04 192.034 35.472 192.594 35.76C193.17 36.048 193.85 36.192 194.634 36.192C195.322 36.192 195.922 36.088 196.434 35.88C196.946 35.672 197.426 35.36 197.874 34.944L199.866 37.104C199.274 37.776 198.53 38.296 197.634 38.664C196.738 39.016 195.706 39.192 194.538 39.192Z" fill="white"/>
<defs>
<linearGradient id="paint0_linear_372_607" x1="130" y1="60" x2="130" y2="0" gradientUnits="userSpaceOnUse">
<stop stop-color="#032642"/>
<stop offset="1" stop-color="#00159E"/>
</linearGradient>
</defs>
</svg>
