<svg width="24" height="24" viewBox="0 0 24 24" fill="none" xmlns="http://www.w3.org/2000/svg">
<path d="M11.25 2.07336C10.6437 2.18646 9.93159 2.43023 8.83772 2.80466L8.26491 3.00074C5.25832 4.0299 3.75503 4.54449 3.37752 5.08236C3.00825 5.60848 3.00018 7.14969 3 10.2094L11.25 7.45938V2.07336Z" fill="#2957F9"/>
<path d="M11.25 9.04052L3 11.7905V11.9913C3 17.6294 7.23896 20.3654 9.89856 21.5272C10.4093 21.7503 10.7392 21.8944 11.25 21.9596V9.04052Z" fill="#2957F9"/>
<path d="M12.75 21.9596V9.04052L21 11.7905V11.9913C21 17.6294 16.761 20.3654 14.1014 21.5272C13.5907 21.7503 13.2608 21.8945 12.75 21.9596Z" fill="#2957F9"/>
<path d="M12.75 7.45938V2.07336C13.3563 2.18646 14.0684 2.43023 15.1623 2.80466L15.7351 3.00074C18.7417 4.0299 20.245 4.54449 20.6225 5.08236C20.9918 5.60848 20.9998 7.14969 21 10.2094L12.75 7.45938Z" fill="#2957F9"/>
</svg>
